<?xml version="1.0" encoding="UTF-8"?>
<svg version="1.1" xmlns="http://www.w3.org/2000/svg" width="512" height="512">
<path d="M0 0 C0.75638711 -0.00350607 1.51277423 -0.00701215 2.29208216 -0.01062447 C4.83515579 -0.01995323 7.37800116 -0.01501137 9.9210844 -0.01015663 C11.759361 -0.01389215 13.59763601 -0.01849327 15.4359085 -0.02388728 C20.49428691 -0.03614488 25.55259933 -0.03585356 30.61098921 -0.03349853 C36.0637401 -0.03309106 41.51646964 -0.04412281 46.96921062 -0.05361366 C57.6547246 -0.0702397 68.34021651 -0.07572393 79.02574233 -0.07683842 C87.70976914 -0.07778812 96.39378865 -0.08189452 105.07781315 -0.08823967 C129.68828817 -0.10585635 154.29874675 -0.11509 178.909228 -0.11357872 C179.90431272 -0.11351889 179.90431272 -0.11351889 180.91950017 -0.11345784 C182.26103627 -0.11337697 183.60257238 -0.11329337 184.94410849 -0.11320706 C205.8164818 -0.11198153 226.68879012 -0.12699458 247.56114483 -0.15435219 C271.00866959 -0.1850724 294.45615872 -0.20225938 317.90370578 -0.20042574 C330.31962197 -0.19976121 342.7354649 -0.20528116 355.15136433 -0.22678185 C365.72195607 -0.24496941 376.29244132 -0.24936091 386.86304191 -0.235763 C392.25742712 -0.22922116 397.65160787 -0.22916007 403.04597378 -0.2464695 C407.98386355 -0.26215139 412.92138593 -0.25938656 417.85926648 -0.24190123 C419.6459248 -0.23882056 421.43261021 -0.24250372 423.21923659 -0.25362138 C441.17507946 -0.35795818 441.17507946 -0.35795818 448.68394756 6.22211266 C449.22277569 6.87308922 449.76160381 7.52406578 450.31676006 8.19476891 C450.87105694 8.84316734 451.42535381 9.49156578 451.99644756 10.15961266 C455.25074934 14.88274793 455.73201959 19.19660697 455.69902897 24.81550884 C455.70253504 25.57189596 455.70604112 26.32828307 455.70965344 27.107591 C455.7189822 29.65066463 455.71404033 32.19351 455.7091856 34.73659325 C455.71292112 36.57486985 455.71752224 38.41314486 455.72291625 40.25141734 C455.73517384 45.30979575 455.73488253 50.36810817 455.73252749 55.42649806 C455.73212003 60.87924895 455.74315178 66.33197848 455.75264263 71.78471947 C455.76926867 82.47023344 455.7747529 93.15572535 455.77586739 103.84125117 C455.77681709 112.52527798 455.78092348 121.20929749 455.78726864 129.89332199 C455.80488531 154.50379701 455.81411897 179.11425559 455.81260769 203.72473685 C455.8125678 204.38812666 455.81252791 205.05151647 455.81248681 205.73500901 C455.81240594 207.07654512 455.81232234 208.41808123 455.81223603 209.75961734 C455.8110105 230.63199064 455.82602355 251.50429896 455.85338116 272.37665367 C455.88410137 295.82417843 455.90128835 319.27166757 455.89945471 342.71921462 C455.89879018 355.13513082 455.90431012 367.55097374 455.92581081 379.96687317 C455.94399838 390.53746491 455.94838988 401.10795016 455.93479197 411.67855076 C455.92825013 417.07293596 455.92818904 422.46711671 455.94549847 427.86148262 C455.96118036 432.7993724 455.95841553 437.73689478 455.9409302 442.67477532 C455.93784953 444.46143364 455.94153269 446.24811905 455.95265035 448.03474543 C456.05698714 465.9905883 456.05698714 465.9905883 449.47691631 473.49945641 C448.82593975 474.03828453 448.17496319 474.57711266 447.50426006 475.13226891 C446.85586163 475.68656578 446.20746319 476.24086266 445.53941631 476.81195641 C440.81628104 480.06625818 436.502422 480.54752843 430.88352013 480.51453781 C430.12713301 480.51804389 429.3707459 480.52154996 428.59143797 480.52516228 C426.04836434 480.53449104 423.50551897 480.52954918 420.96243572 480.52469444 C419.12415912 480.52842996 417.28588411 480.53303108 415.44761163 480.53842509 C410.38923322 480.55068269 405.3309208 480.55039137 400.27253091 480.54803634 C394.81978002 480.54762887 389.36705049 480.55866062 383.9143095 480.56815147 C373.22879553 480.58477751 362.54330362 480.59026174 351.8577778 480.59137623 C343.17375099 480.59232593 334.48973148 480.59643233 325.80570698 480.60277748 C301.19523196 480.62039416 276.58477338 480.62962781 251.97429212 480.62811653 C251.31090231 480.62807664 250.6475125 480.62803675 249.96401996 480.62799565 C248.62248385 480.62791478 247.28094774 480.62783118 245.93941163 480.62774487 C225.06703833 480.62651935 204.19473001 480.64153239 183.3223753 480.66889 C159.87485053 480.69961021 136.4273614 480.71679719 112.97981435 480.71496356 C100.56389815 480.71429902 88.14805523 480.71981897 75.7321558 480.74131966 C65.16156406 480.75950722 54.59107881 480.76389872 44.02047821 480.75030081 C38.62609301 480.74375897 33.23191226 480.74369788 27.83754635 480.76100731 C22.89965657 480.7766892 17.96213419 480.77392437 13.02425364 480.75643905 C11.23759533 480.75335838 9.45090992 480.75704153 7.66428354 480.7681592 C-10.29155933 480.87249599 -10.29155933 480.87249599 -17.80042744 474.29242516 C-18.33925556 473.64144859 -18.87808369 472.99047203 -19.43323994 472.31976891 C-19.98753681 471.67137047 -20.54183369 471.02297203 -21.11292744 470.35492516 C-24.36722921 465.63178988 -24.84849946 461.31793084 -24.81550884 455.69902897 C-24.82076795 454.5644483 -24.82076795 454.5644483 -24.82613331 453.40694681 C-24.83546207 450.86387318 -24.83052021 448.32102781 -24.82566547 445.77794456 C-24.82940099 443.93966797 -24.83400211 442.10139295 -24.83939612 440.26312047 C-24.85165372 435.20474206 -24.85136241 430.14642964 -24.84900737 425.08803976 C-24.8485999 419.63528886 -24.85963165 414.18255933 -24.86912251 408.72981834 C-24.88574854 398.04430437 -24.89123277 387.35881246 -24.89234726 376.67328664 C-24.89329696 367.98925983 -24.89740336 359.30524032 -24.90374851 350.62121582 C-24.92136519 326.0107408 -24.93059884 301.40028222 -24.92908756 276.78980096 C-24.92904767 276.12641115 -24.92900778 275.46302134 -24.92896668 274.7795288 C-24.92888581 273.43799269 -24.92880221 272.09645658 -24.9287159 270.75492048 C-24.92749038 249.88254717 -24.94250342 229.01023885 -24.96986103 208.13788414 C-25.00058124 184.69035938 -25.01776822 161.24287024 -25.01593459 137.79532319 C-25.01527006 125.37940699 -25.02079 112.96356407 -25.04229069 100.54766464 C-25.06047825 89.9770729 -25.06486975 79.40658765 -25.05127184 68.83598705 C-25.04473 63.44160185 -25.04466891 58.0474211 -25.06197834 52.65305519 C-25.07766023 47.71516542 -25.0748954 42.77764304 -25.05741008 37.83976249 C-25.05432941 36.05310417 -25.05801256 34.26641876 -25.06913023 32.47979238 C-25.17346702 14.52394951 -25.17346702 14.52394951 -18.59339619 7.01508141 C-17.94241962 6.47625328 -17.29144306 5.93742516 -16.62073994 5.38226891 C-15.9723415 4.82797203 -15.32394306 4.27367516 -14.65589619 3.70258141 C-9.93276091 0.44827963 -5.61890187 -0.03299062 0 0 Z " fill="#000000" transform="translate(40.55823993682861,15.742731094360352)"/>
<path d="M0 0 C0.75638711 -0.00350607 1.51277423 -0.00701215 2.29208216 -0.01062447 C4.83515579 -0.01995323 7.37800116 -0.01501137 9.9210844 -0.01015663 C11.759361 -0.01389215 13.59763601 -0.01849327 15.4359085 -0.02388728 C20.49428691 -0.03614488 25.55259933 -0.03585356 30.61098921 -0.03349853 C36.0637401 -0.03309106 41.51646964 -0.04412281 46.96921062 -0.05361366 C57.6547246 -0.0702397 68.34021651 -0.07572393 79.02574233 -0.07683842 C87.70976914 -0.07778812 96.39378865 -0.08189452 105.07781315 -0.08823967 C129.68828817 -0.10585635 154.29874675 -0.11509 178.909228 -0.11357872 C179.90431272 -0.11351889 179.90431272 -0.11351889 180.91950017 -0.11345784 C182.26103627 -0.11337697 183.60257238 -0.11329337 184.94410849 -0.11320706 C205.8164818 -0.11198153 226.68879012 -0.12699458 247.56114483 -0.15435219 C271.00866959 -0.1850724 294.45615872 -0.20225938 317.90370578 -0.20042574 C330.31962197 -0.19976121 342.7354649 -0.20528116 355.15136433 -0.22678185 C365.72195607 -0.24496941 376.29244132 -0.24936091 386.86304191 -0.235763 C392.25742712 -0.22922116 397.65160787 -0.22916007 403.04597378 -0.2464695 C407.98386355 -0.26215139 412.92138593 -0.25938656 417.85926648 -0.24190123 C419.6459248 -0.23882056 421.43261021 -0.24250372 423.21923659 -0.25362138 C441.17507946 -0.35795818 441.17507946 -0.35795818 448.68394756 6.22211266 C449.22277569 6.87308922 449.76160381 7.52406578 450.31676006 8.19476891 C450.87105694 8.84316734 451.42535381 9.49156578 451.99644756 10.15961266 C455.25074934 14.88274793 455.73201959 19.19660697 455.69902897 24.81550884 C455.70253504 25.57189596 455.70604112 26.32828307 455.70965344 27.107591 C455.7189822 29.65066463 455.71404033 32.19351 455.7091856 34.73659325 C455.71292112 36.57486985 455.71752224 38.41314486 455.72291625 40.25141734 C455.73517384 45.30979575 455.73488253 50.36810817 455.73252749 55.42649806 C455.73212003 60.87924895 455.74315178 66.33197848 455.75264263 71.78471947 C455.76926867 82.47023344 455.7747529 93.15572535 455.77586739 103.84125117 C455.77681709 112.52527798 455.78092348 121.20929749 455.78726864 129.89332199 C455.80488531 154.50379701 455.81411897 179.11425559 455.81260769 203.72473685 C455.8125678 204.38812666 455.81252791 205.05151647 455.81248681 205.73500901 C455.81240594 207.07654512 455.81232234 208.41808123 455.81223603 209.75961734 C455.8110105 230.63199064 455.82602355 251.50429896 455.85338116 272.37665367 C455.88410137 295.82417843 455.90128835 319.27166757 455.89945471 342.71921462 C455.89879018 355.13513082 455.90431012 367.55097374 455.92581081 379.96687317 C455.94399838 390.53746491 455.94838988 401.10795016 455.93479197 411.67855076 C455.92825013 417.07293596 455.92818904 422.46711671 455.94549847 427.86148262 C455.96118036 432.7993724 455.95841553 437.73689478 455.9409302 442.67477532 C455.93784953 444.46143364 455.94153269 446.24811905 455.95265035 448.03474543 C456.05698714 465.9905883 456.05698714 465.9905883 449.47691631 473.49945641 C448.82593975 474.03828453 448.17496319 474.57711266 447.50426006 475.13226891 C446.85586163 475.68656578 446.20746319 476.24086266 445.53941631 476.81195641 C440.81628104 480.06625818 436.502422 480.54752843 430.88352013 480.51453781 C430.12713301 480.51804389 429.3707459 480.52154996 428.59143797 480.52516228 C426.04836434 480.53449104 423.50551897 480.52954918 420.96243572 480.52469444 C419.12415912 480.52842996 417.28588411 480.53303108 415.44761163 480.53842509 C410.38923322 480.55068269 405.3309208 480.55039137 400.27253091 480.54803634 C394.81978002 480.54762887 389.36705049 480.55866062 383.9143095 480.56815147 C373.22879553 480.58477751 362.54330362 480.59026174 351.8577778 480.59137623 C343.17375099 480.59232593 334.48973148 480.59643233 325.80570698 480.60277748 C301.19523196 480.62039416 276.58477338 480.62962781 251.97429212 480.62811653 C251.31090231 480.62807664 250.6475125 480.62803675 249.96401996 480.62799565 C248.62248385 480.62791478 247.28094774 480.62783118 245.93941163 480.62774487 C225.06703833 480.62651935 204.19473001 480.64153239 183.3223753 480.66889 C159.87485053 480.69961021 136.4273614 480.71679719 112.97981435 480.71496356 C100.56389815 480.71429902 88.14805523 480.71981897 75.7321558 480.74131966 C65.16156406 480.75950722 54.59107881 480.76389872 44.02047821 480.75030081 C38.62609301 480.74375897 33.23191226 480.74369788 27.83754635 480.76100731 C22.89965657 480.7766892 17.96213419 480.77392437 13.02425364 480.75643905 C11.23759533 480.75335838 9.45090992 480.75704153 7.66428354 480.7681592 C-10.29155933 480.87249599 -10.29155933 480.87249599 -17.80042744 474.29242516 C-18.33925556 473.64144859 -18.87808369 472.99047203 -19.43323994 472.31976891 C-19.98753681 471.67137047 -20.54183369 471.02297203 -21.11292744 470.35492516 C-24.36722921 465.63178988 -24.84849946 461.31793084 -24.81550884 455.69902897 C-24.82076795 454.5644483 -24.82076795 454.5644483 -24.82613331 453.40694681 C-24.83546207 450.86387318 -24.83052021 448.32102781 -24.82566547 445.77794456 C-24.82940099 443.93966797 -24.83400211 442.10139295 -24.83939612 440.26312047 C-24.85165372 435.20474206 -24.85136241 430.14642964 -24.84900737 425.08803976 C-24.8485999 419.63528886 -24.85963165 414.18255933 -24.86912251 408.72981834 C-24.88574854 398.04430437 -24.89123277 387.35881246 -24.89234726 376.67328664 C-24.89329696 367.98925983 -24.89740336 359.30524032 -24.90374851 350.62121582 C-24.92136519 326.0107408 -24.93059884 301.40028222 -24.92908756 276.78980096 C-24.92904767 276.12641115 -24.92900778 275.46302134 -24.92896668 274.7795288 C-24.92888581 273.43799269 -24.92880221 272.09645658 -24.9287159 270.75492048 C-24.92749038 249.88254717 -24.94250342 229.01023885 -24.96986103 208.13788414 C-25.00058124 184.69035938 -25.01776822 161.24287024 -25.01593459 137.79532319 C-25.01527006 125.37940699 -25.02079 112.96356407 -25.04229069 100.54766464 C-25.06047825 89.9770729 -25.06486975 79.40658765 -25.05127184 68.83598705 C-25.04473 63.44160185 -25.04466891 58.0474211 -25.06197834 52.65305519 C-25.07766023 47.71516542 -25.0748954 42.77764304 -25.05741008 37.83976249 C-25.05432941 36.05310417 -25.05801256 34.26641876 -25.06913023 32.47979238 C-25.17346702 14.52394951 -25.17346702 14.52394951 -18.59339619 7.01508141 C-17.94241962 6.47625328 -17.29144306 5.93742516 -16.62073994 5.38226891 C-15.9723415 4.82797203 -15.32394306 4.27367516 -14.65589619 3.70258141 C-9.93276091 0.44827963 -5.61890187 -0.03299062 0 0 Z M63.44176006 32.25726891 C63.44176006 40.17726891 63.44176006 48.09726891 63.44176006 56.25726891 C53.31676006 56.00726891 53.31676006 56.00726891 50.16002178 55.89691734 C44.39069432 55.82811598 40.96967728 56.31058988 36.44176006 60.25726891 C32.83490322 64.35153884 31.31145425 66.62650469 31.34410381 72.04633141 C31.34660137 72.89405113 31.34909893 73.74177086 31.35167217 74.61517906 C31.36077618 75.69331871 31.36988018 76.77145836 31.37926006 77.88226891 C31.39988506 81.30601891 31.42051006 84.72976891 31.44176006 88.25726891 C23.52176006 88.25726891 15.60176006 88.25726891 7.44176006 88.25726891 C7.44176006 93.53726891 7.44176006 98.81726891 7.44176006 104.25726891 C15.36176006 104.25726891 23.28176006 104.25726891 31.44176006 104.25726891 C31.44176006 109.53726891 31.44176006 114.81726891 31.44176006 120.25726891 C23.52176006 120.25726891 15.60176006 120.25726891 7.44176006 120.25726891 C7.44176006 125.53726891 7.44176006 130.81726891 7.44176006 136.25726891 C15.36176006 136.25726891 23.28176006 136.25726891 31.44176006 136.25726891 C31.44176006 141.53726891 31.44176006 146.81726891 31.44176006 152.25726891 C23.52176006 152.25726891 15.60176006 152.25726891 7.44176006 152.25726891 C7.44176006 157.53726891 7.44176006 162.81726891 7.44176006 168.25726891 C15.36176006 168.25726891 23.28176006 168.25726891 31.44176006 168.25726891 C31.44176006 173.53726891 31.44176006 178.81726891 31.44176006 184.25726891 C23.52176006 184.25726891 15.60176006 184.25726891 7.44176006 184.25726891 C7.44176006 189.53726891 7.44176006 194.81726891 7.44176006 200.25726891 C15.36176006 200.25726891 23.28176006 200.25726891 31.44176006 200.25726891 C31.44176006 205.53726891 31.44176006 210.81726891 31.44176006 216.25726891 C23.52176006 216.25726891 15.60176006 216.25726891 7.44176006 216.25726891 C7.44176006 221.53726891 7.44176006 226.81726891 7.44176006 232.25726891 C15.36176006 232.25726891 23.28176006 232.25726891 31.44176006 232.25726891 C31.44176006 237.53726891 31.44176006 242.81726891 31.44176006 248.25726891 C23.52176006 248.25726891 15.60176006 248.25726891 7.44176006 248.25726891 C7.44176006 253.53726891 7.44176006 258.81726891 7.44176006 264.25726891 C15.36176006 264.25726891 23.28176006 264.25726891 31.44176006 264.25726891 C31.44176006 269.53726891 31.44176006 274.81726891 31.44176006 280.25726891 C23.52176006 280.25726891 15.60176006 280.25726891 7.44176006 280.25726891 C7.44176006 285.53726891 7.44176006 290.81726891 7.44176006 296.25726891 C15.36176006 296.25726891 23.28176006 296.25726891 31.44176006 296.25726891 C31.44176006 301.53726891 31.44176006 306.81726891 31.44176006 312.25726891 C23.52176006 312.25726891 15.60176006 312.25726891 7.44176006 312.25726891 C7.44176006 317.53726891 7.44176006 322.81726891 7.44176006 328.25726891 C15.36176006 328.25726891 23.28176006 328.25726891 31.44176006 328.25726891 C31.44176006 333.53726891 31.44176006 338.81726891 31.44176006 344.25726891 C23.52176006 344.25726891 15.60176006 344.25726891 7.44176006 344.25726891 C7.44176006 349.53726891 7.44176006 354.81726891 7.44176006 360.25726891 C15.36176006 360.25726891 23.28176006 360.25726891 31.44176006 360.25726891 C31.44176006 365.53726891 31.44176006 370.81726891 31.44176006 376.25726891 C23.52176006 376.25726891 15.60176006 376.25726891 7.44176006 376.25726891 C7.44176006 381.53726891 7.44176006 386.81726891 7.44176006 392.25726891 C15.36176006 392.25726891 23.28176006 392.25726891 31.44176006 392.25726891 C31.25426006 401.88226891 31.25426006 401.88226891 31.17149639 404.88080406 C31.11504425 410.88658379 31.7008115 415.32103648 35.97691631 419.90180016 C40.09145988 423.04821582 42.093515 424.38587279 47.23082256 424.35492516 C48.07854229 424.3524276 48.92626202 424.34993004 49.79967022 424.3473568 C50.87780987 424.33825279 51.95594952 424.32914879 53.06676006 424.31976891 C56.49051006 424.29914391 59.91426006 424.27851891 63.44176006 424.25726891 C63.44176006 432.17726891 63.44176006 440.09726891 63.44176006 448.25726891 C68.72176006 448.25726891 74.00176006 448.25726891 79.44176006 448.25726891 C79.44176006 440.33726891 79.44176006 432.41726891 79.44176006 424.25726891 C84.72176006 424.25726891 90.00176006 424.25726891 95.44176006 424.25726891 C95.44176006 432.17726891 95.44176006 440.09726891 95.44176006 448.25726891 C100.72176006 448.25726891 106.00176006 448.25726891 111.44176006 448.25726891 C111.44176006 440.33726891 111.44176006 432.41726891 111.44176006 424.25726891 C116.72176006 424.25726891 122.00176006 424.25726891 127.44176006 424.25726891 C127.44176006 432.17726891 127.44176006 440.09726891 127.44176006 448.25726891 C132.72176006 448.25726891 138.00176006 448.25726891 143.44176006 448.25726891 C143.44176006 440.33726891 143.44176006 432.41726891 143.44176006 424.25726891 C148.72176006 424.25726891 154.00176006 424.25726891 159.44176006 424.25726891 C159.44176006 432.17726891 159.44176006 440.09726891 159.44176006 448.25726891 C164.72176006 448.25726891 170.00176006 448.25726891 175.44176006 448.25726891 C175.44176006 440.33726891 175.44176006 432.41726891 175.44176006 424.25726891 C180.72176006 424.25726891 186.00176006 424.25726891 191.44176006 424.25726891 C191.44176006 432.17726891 191.44176006 440.09726891 191.44176006 448.25726891 C196.72176006 448.25726891 202.00176006 448.25726891 207.44176006 448.25726891 C207.44176006 440.33726891 207.44176006 432.41726891 207.44176006 424.25726891 C212.72176006 424.25726891 218.00176006 424.25726891 223.44176006 424.25726891 C223.44176006 432.17726891 223.44176006 440.09726891 223.44176006 448.25726891 C228.72176006 448.25726891 234.00176006 448.25726891 239.44176006 448.25726891 C239.44176006 440.33726891 239.44176006 432.41726891 239.44176006 424.25726891 C244.72176006 424.25726891 250.00176006 424.25726891 255.44176006 424.25726891 C255.44176006 432.17726891 255.44176006 440.09726891 255.44176006 448.25726891 C260.72176006 448.25726891 266.00176006 448.25726891 271.44176006 448.25726891 C271.44176006 440.33726891 271.44176006 432.41726891 271.44176006 424.25726891 C276.72176006 424.25726891 282.00176006 424.25726891 287.44176006 424.25726891 C287.44176006 432.17726891 287.44176006 440.09726891 287.44176006 448.25726891 C292.72176006 448.25726891 298.00176006 448.25726891 303.44176006 448.25726891 C303.44176006 440.33726891 303.44176006 432.41726891 303.44176006 424.25726891 C308.72176006 424.25726891 314.00176006 424.25726891 319.44176006 424.25726891 C319.44176006 432.17726891 319.44176006 440.09726891 319.44176006 448.25726891 C324.72176006 448.25726891 330.00176006 448.25726891 335.44176006 448.25726891 C335.44176006 440.33726891 335.44176006 432.41726891 335.44176006 424.25726891 C340.72176006 424.25726891 346.00176006 424.25726891 351.44176006 424.25726891 C351.44176006 432.17726891 351.44176006 440.09726891 351.44176006 448.25726891 C356.72176006 448.25726891 362.00176006 448.25726891 367.44176006 448.25726891 C367.44176006 440.33726891 367.44176006 432.41726891 367.44176006 424.25726891 C377.06676006 424.44476891 377.06676006 424.44476891 380.06529522 424.52753258 C386.07410413 424.58401319 390.46370805 423.97359189 395.08629131 419.75726891 C398.33383894 415.5865054 399.57276246 412.82464494 399.53941631 407.58930016 C399.53566998 406.38237511 399.53566998 406.38237511 399.53184795 405.15106773 C399.52274395 404.13423912 399.51363995 403.11741051 399.50426006 402.06976891 C399.47332256 397.21258141 399.47332256 397.21258141 399.44176006 392.25726891 C407.36176006 392.25726891 415.28176006 392.25726891 423.44176006 392.25726891 C423.44176006 386.97726891 423.44176006 381.69726891 423.44176006 376.25726891 C415.52176006 376.25726891 407.60176006 376.25726891 399.44176006 376.25726891 C399.44176006 370.97726891 399.44176006 365.69726891 399.44176006 360.25726891 C407.36176006 360.25726891 415.28176006 360.25726891 423.44176006 360.25726891 C423.44176006 354.97726891 423.44176006 349.69726891 423.44176006 344.25726891 C415.52176006 344.25726891 407.60176006 344.25726891 399.44176006 344.25726891 C399.44176006 338.97726891 399.44176006 333.69726891 399.44176006 328.25726891 C407.36176006 328.25726891 415.28176006 328.25726891 423.44176006 328.25726891 C423.44176006 322.97726891 423.44176006 317.69726891 423.44176006 312.25726891 C415.52176006 312.25726891 407.60176006 312.25726891 399.44176006 312.25726891 C399.44176006 306.97726891 399.44176006 301.69726891 399.44176006 296.25726891 C407.36176006 296.25726891 415.28176006 296.25726891 423.44176006 296.25726891 C423.44176006 290.97726891 423.44176006 285.69726891 423.44176006 280.25726891 C415.52176006 280.25726891 407.60176006 280.25726891 399.44176006 280.25726891 C399.44176006 274.97726891 399.44176006 269.69726891 399.44176006 264.25726891 C407.36176006 264.25726891 415.28176006 264.25726891 423.44176006 264.25726891 C423.44176006 258.97726891 423.44176006 253.69726891 423.44176006 248.25726891 C415.52176006 248.25726891 407.60176006 248.25726891 399.44176006 248.25726891 C399.44176006 242.97726891 399.44176006 237.69726891 399.44176006 232.25726891 C407.36176006 232.25726891 415.28176006 232.25726891 423.44176006 232.25726891 C423.44176006 226.97726891 423.44176006 221.69726891 423.44176006 216.25726891 C415.52176006 216.25726891 407.60176006 216.25726891 399.44176006 216.25726891 C399.44176006 210.97726891 399.44176006 205.69726891 399.44176006 200.25726891 C407.36176006 200.25726891 415.28176006 200.25726891 423.44176006 200.25726891 C423.44176006 194.97726891 423.44176006 189.69726891 423.44176006 184.25726891 C415.52176006 184.25726891 407.60176006 184.25726891 399.44176006 184.25726891 C399.44176006 178.97726891 399.44176006 173.69726891 399.44176006 168.25726891 C407.36176006 168.25726891 415.28176006 168.25726891 423.44176006 168.25726891 C423.44176006 162.97726891 423.44176006 157.69726891 423.44176006 152.25726891 C415.52176006 152.25726891 407.60176006 152.25726891 399.44176006 152.25726891 C399.44176006 146.97726891 399.44176006 141.69726891 399.44176006 136.25726891 C407.36176006 136.25726891 415.28176006 136.25726891 423.44176006 136.25726891 C423.44176006 130.97726891 423.44176006 125.69726891 423.44176006 120.25726891 C415.52176006 120.25726891 407.60176006 120.25726891 399.44176006 120.25726891 C399.44176006 114.97726891 399.44176006 109.69726891 399.44176006 104.25726891 C407.36176006 104.25726891 415.28176006 104.25726891 423.44176006 104.25726891 C423.44176006 98.97726891 423.44176006 93.69726891 423.44176006 88.25726891 C415.52176006 88.25726891 407.60176006 88.25726891 399.44176006 88.25726891 C399.69176006 78.13226891 399.69176006 78.13226891 399.80211163 74.97553062 C399.87093316 69.20451161 399.38490884 65.78937615 395.44176006 61.25726891 C391.28443158 57.50553345 388.34276829 56.12414146 382.77379131 56.15961266 C381.96917461 56.16211021 381.16455791 56.16460777 380.33555889 56.16718102 C379.31873028 56.17628502 378.30190166 56.18538902 377.25426006 56.19476891 C374.01613506 56.21539391 370.77801006 56.23601891 367.44176006 56.25726891 C367.44176006 48.33726891 367.44176006 40.41726891 367.44176006 32.25726891 C362.16176006 32.25726891 356.88176006 32.25726891 351.44176006 32.25726891 C351.44176006 40.17726891 351.44176006 48.09726891 351.44176006 56.25726891 C346.16176006 56.25726891 340.88176006 56.25726891 335.44176006 56.25726891 C335.44176006 48.33726891 335.44176006 40.41726891 335.44176006 32.25726891 C330.16176006 32.25726891 324.88176006 32.25726891 319.44176006 32.25726891 C319.44176006 40.17726891 319.44176006 48.09726891 319.44176006 56.25726891 C314.16176006 56.25726891 308.88176006 56.25726891 303.44176006 56.25726891 C303.44176006 48.33726891 303.44176006 40.41726891 303.44176006 32.25726891 C298.16176006 32.25726891 292.88176006 32.25726891 287.44176006 32.25726891 C287.44176006 40.17726891 287.44176006 48.09726891 287.44176006 56.25726891 C282.16176006 56.25726891 276.88176006 56.25726891 271.44176006 56.25726891 C271.44176006 48.33726891 271.44176006 40.41726891 271.44176006 32.25726891 C266.16176006 32.25726891 260.88176006 32.25726891 255.44176006 32.25726891 C255.44176006 40.17726891 255.44176006 48.09726891 255.44176006 56.25726891 C250.16176006 56.25726891 244.88176006 56.25726891 239.44176006 56.25726891 C239.44176006 48.33726891 239.44176006 40.41726891 239.44176006 32.25726891 C234.16176006 32.25726891 228.88176006 32.25726891 223.44176006 32.25726891 C223.44176006 40.17726891 223.44176006 48.09726891 223.44176006 56.25726891 C218.16176006 56.25726891 212.88176006 56.25726891 207.44176006 56.25726891 C207.44176006 48.33726891 207.44176006 40.41726891 207.44176006 32.25726891 C202.16176006 32.25726891 196.88176006 32.25726891 191.44176006 32.25726891 C191.44176006 40.17726891 191.44176006 48.09726891 191.44176006 56.25726891 C186.16176006 56.25726891 180.88176006 56.25726891 175.44176006 56.25726891 C175.44176006 48.33726891 175.44176006 40.41726891 175.44176006 32.25726891 C170.16176006 32.25726891 164.88176006 32.25726891 159.44176006 32.25726891 C159.44176006 40.17726891 159.44176006 48.09726891 159.44176006 56.25726891 C154.16176006 56.25726891 148.88176006 56.25726891 143.44176006 56.25726891 C143.44176006 48.33726891 143.44176006 40.41726891 143.44176006 32.25726891 C138.16176006 32.25726891 132.88176006 32.25726891 127.44176006 32.25726891 C127.44176006 40.17726891 127.44176006 48.09726891 127.44176006 56.25726891 C122.16176006 56.25726891 116.88176006 56.25726891 111.44176006 56.25726891 C111.44176006 48.33726891 111.44176006 40.41726891 111.44176006 32.25726891 C106.16176006 32.25726891 100.88176006 32.25726891 95.44176006 32.25726891 C95.44176006 40.17726891 95.44176006 48.09726891 95.44176006 56.25726891 C90.16176006 56.25726891 84.88176006 56.25726891 79.44176006 56.25726891 C79.44176006 48.33726891 79.44176006 40.41726891 79.44176006 32.25726891 C74.16176006 32.25726891 68.88176006 32.25726891 63.44176006 32.25726891 Z " fill="#B6B5B6" transform="translate(40.55823993682861,15.742731094360352)"/>
<path d="M0 0 C5.28 0 10.56 0 16 0 C16 7.92 16 15.84 16 24 C21.28 24 26.56 24 32 24 C32 16.08 32 8.16 32 0 C37.28 0 42.56 0 48 0 C48 7.92 48 15.84 48 24 C53.28 24 58.56 24 64 24 C64 16.08 64 8.16 64 0 C69.28 0 74.56 0 80 0 C80 7.92 80 15.84 80 24 C85.28 24 90.56 24 96 24 C96 16.08 96 8.16 96 0 C101.28 0 106.56 0 112 0 C112 7.92 112 15.84 112 24 C117.28 24 122.56 24 128 24 C128 16.08 128 8.16 128 0 C133.28 0 138.56 0 144 0 C144 7.92 144 15.84 144 24 C149.28 24 154.56 24 160 24 C160 16.08 160 8.16 160 0 C165.28 0 170.56 0 176 0 C176 7.92 176 15.84 176 24 C181.28 24 186.56 24 192 24 C192 16.08 192 8.16 192 0 C197.28 0 202.56 0 208 0 C208 7.92 208 15.84 208 24 C213.28 24 218.56 24 224 24 C224 16.08 224 8.16 224 0 C229.28 0 234.56 0 240 0 C240 7.92 240 15.84 240 24 C245.28 24 250.56 24 256 24 C256 16.08 256 8.16 256 0 C261.28 0 266.56 0 272 0 C272 7.92 272 15.84 272 24 C277.28 24 282.56 24 288 24 C288 16.08 288 8.16 288 0 C293.28 0 298.56 0 304 0 C304 7.92 304 15.84 304 24 C310.31216954 23.88194338 310.31216954 23.88194338 316.62353516 23.72973633 C322.62931488 23.67328418 327.06376757 24.25905144 331.64453125 28.53515625 C334.79094692 32.64969981 336.12860389 34.65175493 336.09765625 39.7890625 C336.09515869 40.63678223 336.09266113 41.48450195 336.09008789 42.35791016 C336.07643188 43.97511963 336.07643188 43.97511963 336.0625 45.625 C336.041875 49.04875 336.02125 52.4725 336 56 C343.92 56 351.84 56 360 56 C360 61.28 360 66.56 360 72 C352.08 72 344.16 72 336 72 C336 77.28 336 82.56 336 88 C343.92 88 351.84 88 360 88 C360 93.28 360 98.56 360 104 C352.08 104 344.16 104 336 104 C336 109.28 336 114.56 336 120 C343.92 120 351.84 120 360 120 C360 125.28 360 130.56 360 136 C352.08 136 344.16 136 336 136 C336 141.28 336 146.56 336 152 C343.92 152 351.84 152 360 152 C360 157.28 360 162.56 360 168 C352.08 168 344.16 168 336 168 C336 173.28 336 178.56 336 184 C343.92 184 351.84 184 360 184 C360 189.28 360 194.56 360 200 C352.08 200 344.16 200 336 200 C336 205.28 336 210.56 336 216 C343.92 216 351.84 216 360 216 C360 221.28 360 226.56 360 232 C352.08 232 344.16 232 336 232 C336 237.28 336 242.56 336 248 C343.92 248 351.84 248 360 248 C360 253.28 360 258.56 360 264 C352.08 264 344.16 264 336 264 C336 269.28 336 274.56 336 280 C343.92 280 351.84 280 360 280 C360 285.28 360 290.56 360 296 C352.08 296 344.16 296 336 296 C336 301.28 336 306.56 336 312 C343.92 312 351.84 312 360 312 C360 317.28 360 322.56 360 328 C352.08 328 344.16 328 336 328 C336 333.28 336 338.56 336 344 C343.92 344 351.84 344 360 344 C360 349.28 360 354.56 360 360 C352.08 360 344.16 360 336 360 C336.11805662 366.31216954 336.11805662 366.31216954 336.27026367 372.62353516 C336.32674429 378.63234406 335.71632298 383.02194798 331.5 387.64453125 C327.32923649 390.89207888 324.56737604 392.1310024 319.33203125 392.09765625 C318.52741455 392.09515869 317.72279785 392.09266113 316.89379883 392.09008789 C315.36855591 392.07643188 315.36855591 392.07643188 313.8125 392.0625 C308.9553125 392.0315625 308.9553125 392.0315625 304 392 C304 399.92 304 407.84 304 416 C298.72 416 293.44 416 288 416 C288 408.08 288 400.16 288 392 C282.72 392 277.44 392 272 392 C272 399.92 272 407.84 272 416 C266.72 416 261.44 416 256 416 C256 408.08 256 400.16 256 392 C250.72 392 245.44 392 240 392 C240 399.92 240 407.84 240 416 C234.72 416 229.44 416 224 416 C224 408.08 224 400.16 224 392 C218.72 392 213.44 392 208 392 C208 399.92 208 407.84 208 416 C202.72 416 197.44 416 192 416 C192 408.08 192 400.16 192 392 C186.72 392 181.44 392 176 392 C176 399.92 176 407.84 176 416 C170.72 416 165.44 416 160 416 C160 408.08 160 400.16 160 392 C154.72 392 149.44 392 144 392 C144 399.92 144 407.84 144 416 C138.72 416 133.44 416 128 416 C128 408.08 128 400.16 128 392 C122.72 392 117.44 392 112 392 C112 399.92 112 407.84 112 416 C106.72 416 101.44 416 96 416 C96 408.08 96 400.16 96 392 C90.72 392 85.44 392 80 392 C80 399.92 80 407.84 80 416 C74.72 416 69.44 416 64 416 C64 408.08 64 400.16 64 392 C58.72 392 53.44 392 48 392 C48 399.92 48 407.84 48 416 C42.72 416 37.44 416 32 416 C32 408.08 32 400.16 32 392 C26.72 392 21.44 392 16 392 C16 399.92 16 407.84 16 416 C10.72 416 5.44 416 0 416 C0 408.08 0 400.16 0 392 C-6.64154623 392.15747273 -6.64154623 392.15747273 -13.28173828 392.36035156 C-19.0527573 392.4291731 -22.46789275 391.94314878 -27 388 C-30.75173546 383.84267152 -32.13312744 380.90100822 -32.09765625 375.33203125 C-32.09515869 374.52741455 -32.09266113 373.72279785 -32.09008789 372.89379883 C-32.08098389 371.87697021 -32.07187988 370.8601416 -32.0625 369.8125 C-32.041875 366.574375 -32.02125 363.33625 -32 360 C-39.92 360 -47.84 360 -56 360 C-56 354.72 -56 349.44 -56 344 C-48.08 344 -40.16 344 -32 344 C-32 338.72 -32 333.44 -32 328 C-39.92 328 -47.84 328 -56 328 C-56 322.72 -56 317.44 -56 312 C-48.08 312 -40.16 312 -32 312 C-32 306.72 -32 301.44 -32 296 C-39.92 296 -47.84 296 -56 296 C-56 290.72 -56 285.44 -56 280 C-48.08 280 -40.16 280 -32 280 C-32 274.72 -32 269.44 -32 264 C-39.92 264 -47.84 264 -56 264 C-56 258.72 -56 253.44 -56 248 C-48.08 248 -40.16 248 -32 248 C-32 242.72 -32 237.44 -32 232 C-39.92 232 -47.84 232 -56 232 C-56 226.72 -56 221.44 -56 216 C-48.08 216 -40.16 216 -32 216 C-32 210.72 -32 205.44 -32 200 C-39.92 200 -47.84 200 -56 200 C-56 194.72 -56 189.44 -56 184 C-48.08 184 -40.16 184 -32 184 C-32 178.72 -32 173.44 -32 168 C-39.92 168 -47.84 168 -56 168 C-56 162.72 -56 157.44 -56 152 C-48.08 152 -40.16 152 -32 152 C-32 146.72 -32 141.44 -32 136 C-39.92 136 -47.84 136 -56 136 C-56 130.72 -56 125.44 -56 120 C-48.08 120 -40.16 120 -32 120 C-32 114.72 -32 109.44 -32 104 C-39.92 104 -47.84 104 -56 104 C-56 98.72 -56 93.44 -56 88 C-48.08 88 -40.16 88 -32 88 C-32 82.72 -32 77.44 -32 72 C-39.92 72 -47.84 72 -56 72 C-56 66.72 -56 61.44 -56 56 C-48.08 56 -40.16 56 -32 56 C-32.15747273 49.35845377 -32.15747273 49.35845377 -32.36035156 42.71826172 C-32.42915293 36.94893426 -31.94667903 33.52791721 -28 29 C-23.90573007 25.39314316 -21.63076421 23.86969419 -16.2109375 23.90234375 C-15.36321777 23.90484131 -14.51549805 23.90733887 -13.64208984 23.90991211 C-12.5639502 23.91901611 -11.48581055 23.92812012 -10.375 23.9375 C-5.239375 23.9684375 -5.239375 23.9684375 0 24 C0 16.08 0 8.16 0 0 Z M0 56 C0 156.32 0 256.64 0 360 C100.32 360 200.64 360 304 360 C304 259.68 304 159.36 304 56 C203.68 56 103.36 56 0 56 Z " fill="#000000" transform="translate(104,48)"/>
<path d="M0 0 C100.32 0 200.64 0 304 0 C304 100.32 304 200.64 304 304 C203.68 304 103.36 304 0 304 C0 203.68 0 103.36 0 0 Z M69 47 C67.85060692 48.08653618 67.85060692 48.08653618 66.67799377 49.19502258 C65.74986122 50.12196175 65.74986122 50.12196175 64.80297852 51.06762695 C64.08606339 51.78138992 63.36914825 52.49515289 62.63050842 53.23054504 C61.88747971 53.97559799 61.14445099 54.72065094 60.37890625 55.48828125 C59.59353989 56.27269089 58.80817352 57.05710052 57.99900818 57.86528015 C56.35496283 59.50864976 54.71216047 61.15326375 53.07055664 62.79907227 C50.5488278 65.32620148 48.02174836 67.84789288 45.49414062 70.36914062 C43.89290805 71.97103324 42.29198529 73.57323563 40.69140625 75.17578125 C39.93420792 75.93095535 39.17700958 76.68612946 38.39686584 77.46418762 C37.70201584 78.16218979 37.00716583 78.86019196 36.29125977 79.5793457 C35.67807388 80.19332718 35.064888 80.80730865 34.43312073 81.43989563 C31.44573242 84.6919856 31.86965649 87.4719626 31.85955811 91.77461243 C31.85658698 92.47924801 31.85361586 93.18388358 31.8505547 93.90987176 C31.84184857 96.28278119 31.84035785 98.65564029 31.83886719 101.02856445 C31.83424035 102.72515979 31.82921587 104.42175409 31.82382202 106.11834717 C31.81068266 110.73618538 31.80425002 115.35400904 31.79981136 119.97186303 C31.79688298 122.85542704 31.79277861 125.73898705 31.78830719 128.62254906 C31.77462792 137.64019704 31.76496349 146.6578359 31.7611053 155.67549354 C31.75662401 166.09302404 31.73907461 176.51042336 31.7101047 186.92791396 C31.68850263 194.97467771 31.6784018 203.02140451 31.67706418 211.06819695 C31.67601505 215.87671106 31.67008437 220.68510194 31.65224457 225.49358559 C31.63578946 230.01698893 31.63359589 234.54017607 31.64238358 239.06359863 C31.64315534 240.72405259 31.63879291 242.38451804 31.62892532 244.04494286 C31.61624431 246.31169936 31.62206113 248.57768572 31.63250732 250.84443665 C31.63104076 252.11299153 31.6295742 253.38154642 31.6280632 254.68854237 C32.02968159 258.26426354 32.84225316 260.15097218 35 263 C38.37138627 264.68569314 42.19225795 264.14408585 45.90058899 264.14044189 C46.8339035 264.14341302 47.76721801 264.14638414 48.72881478 264.1494453 C51.87561527 264.15815987 55.02237783 264.15964287 58.16918945 264.16113281 C60.41750165 264.16575903 62.66581305 264.17078342 64.91412354 264.17617798 C71.03604611 264.18932281 77.15795771 264.19575098 83.27989221 264.20018864 C87.10151013 264.20311598 90.92312503 264.20722014 94.74474144 264.21169281 C105.32278601 264.22380469 115.90082795 264.23418575 126.47887897 264.2375679 C127.1561339 264.23778747 127.83338882 264.23800703 128.53116662 264.23823325 C129.54950101 264.23856067 129.54950101 264.23856067 130.58840781 264.2388947 C131.9641306 264.23933817 133.33985339 264.23978473 134.71557617 264.24023438 C135.3979844 264.2404558 136.08039263 264.24067723 136.78347989 264.24090537 C147.84099887 264.2448534 158.89845195 264.26230688 169.95594547 264.2855939 C181.30475248 264.30930175 192.65351528 264.32151146 204.00235146 264.32293582 C210.37581089 264.32398569 216.74917742 264.32993208 223.12261391 264.34775543 C229.11683145 264.3641916 235.1108858 264.36641328 241.1051178 264.35761642 C243.30738956 264.35684366 245.50966993 264.36122009 247.71191978 264.37107468 C250.71429612 264.38372355 253.71608835 264.37795572 256.71846008 264.36749268 C258.03110815 264.37957728 258.03110815 264.37957728 259.37027436 264.39190602 C264.03055193 264.35382348 267.27323064 264.12919392 271 261 C272.27633254 257.17100238 272.1446718 253.56968428 272.14044189 249.57984924 C272.14341302 248.71031158 272.14638414 247.84077392 272.1494453 246.94488662 C272.1581437 244.0199701 272.1596415 241.09509446 272.16113281 238.17016602 C272.1657601 236.07771721 272.17078463 233.98526924 272.17617798 231.89282227 C272.1893107 226.20076443 272.19574838 220.50871839 272.20018864 214.81664777 C272.20311733 211.26321519 272.2072217 207.70978585 272.21169281 204.1563549 C272.22536865 193.04621729 272.23503547 181.93608707 272.2388947 170.82594162 C272.24337894 157.98600018 272.2609435 145.146165 272.2898953 132.30625588 C272.31148089 122.39028915 272.32159727 112.4743524 272.32293582 102.55836242 C272.32398588 96.63151877 272.32993665 90.704775 272.34775543 84.77795601 C272.36418267 79.20560334 272.36641771 73.63342623 272.35761642 68.06105804 C272.35684323 66.01317056 272.36122565 63.96527384 272.37107468 61.9174099 C272.38371006 59.12710644 272.37796342 56.33743271 272.36749268 53.5471344 C272.37554908 52.73206014 272.38360548 51.91698588 272.39190602 51.07721239 C272.36318609 47.8169329 272.22983162 45.42537429 270.66453171 42.5283041 C267.17147367 39.32112282 262.97167937 39.84414049 258.51789856 39.8326416 C257.36483334 39.82395152 257.36483334 39.82395152 256.18847388 39.81508589 C253.60457788 39.79700336 251.02070374 39.78614799 248.43676758 39.77539062 C246.5872579 39.76421642 244.73775024 39.75270313 242.88824463 39.74087524 C236.80703553 39.70430462 230.72580564 39.67909738 224.64453125 39.65625 C223.60999494 39.65230413 222.57545864 39.64835827 221.50957274 39.64429283 C211.75322715 39.60787522 201.99687433 39.57643055 192.24048328 39.55518341 C179.76066433 39.52760381 167.28141344 39.47682681 154.80183107 39.39470911 C146.02720151 39.33892518 137.25272612 39.3099485 128.47792548 39.3007102 C123.23705511 39.29445182 117.99685078 39.27632166 112.75617409 39.22932434 C107.82377768 39.18563939 102.89241111 39.17517518 97.95985413 39.18995285 C96.15226605 39.18962434 94.34463358 39.17735846 92.53722191 39.15210342 C79.14459432 38.9084947 79.14459432 38.9084947 69 47 Z " fill="#4A8CDC" transform="translate(104,104)"/>
<path d="M0 0 C0.75638711 -0.00350607 1.51277423 -0.00701215 2.29208216 -0.01062447 C4.83515579 -0.01995323 7.37800116 -0.01501137 9.9210844 -0.01015663 C11.759361 -0.01389215 13.59763601 -0.01849327 15.4359085 -0.02388728 C20.49428691 -0.03614488 25.55259933 -0.03585356 30.61098921 -0.03349853 C36.0637401 -0.03309106 41.51646964 -0.04412281 46.96921062 -0.05361366 C57.6547246 -0.0702397 68.34021651 -0.07572393 79.02574233 -0.07683842 C87.70976914 -0.07778812 96.39378865 -0.08189452 105.07781315 -0.08823967 C129.68828817 -0.10585635 154.29874675 -0.11509 178.909228 -0.11357872 C179.90431272 -0.11351889 179.90431272 -0.11351889 180.91950017 -0.11345784 C182.26103627 -0.11337697 183.60257238 -0.11329337 184.94410849 -0.11320706 C205.8164818 -0.11198153 226.68879012 -0.12699458 247.56114483 -0.15435219 C271.00866959 -0.1850724 294.45615872 -0.20225938 317.90370578 -0.20042574 C330.31962197 -0.19976121 342.7354649 -0.20528116 355.15136433 -0.22678185 C365.72195607 -0.24496941 376.29244132 -0.24936091 386.86304191 -0.235763 C392.25742712 -0.22922116 397.65160787 -0.22916007 403.04597378 -0.2464695 C407.98386355 -0.26215139 412.92138593 -0.25938656 417.85926648 -0.24190123 C419.6459248 -0.23882056 421.43261021 -0.24250372 423.21923659 -0.25362138 C441.17507946 -0.35795818 441.17507946 -0.35795818 448.68394756 6.22211266 C449.22277569 6.87308922 449.76160381 7.52406578 450.31676006 8.19476891 C450.87105694 8.84316734 451.42535381 9.49156578 451.99644756 10.15961266 C455.25074934 14.88274793 455.73201959 19.19660697 455.69902897 24.81550884 C455.70253504 25.57189596 455.70604112 26.32828307 455.70965344 27.107591 C455.7189822 29.65066463 455.71404033 32.19351 455.7091856 34.73659325 C455.71292112 36.57486985 455.71752224 38.41314486 455.72291625 40.25141734 C455.73517384 45.30979575 455.73488253 50.36810817 455.73252749 55.42649806 C455.73212003 60.87924895 455.74315178 66.33197848 455.75264263 71.78471947 C455.76926867 82.47023344 455.7747529 93.15572535 455.77586739 103.84125117 C455.77681709 112.52527798 455.78092348 121.20929749 455.78726864 129.89332199 C455.80488531 154.50379701 455.81411897 179.11425559 455.81260769 203.72473685 C455.8125678 204.38812666 455.81252791 205.05151647 455.81248681 205.73500901 C455.81240594 207.07654512 455.81232234 208.41808123 455.81223603 209.75961734 C455.8110105 230.63199064 455.82602355 251.50429896 455.85338116 272.37665367 C455.88410137 295.82417843 455.90128835 319.27166757 455.89945471 342.71921462 C455.89879018 355.13513082 455.90431012 367.55097374 455.92581081 379.96687317 C455.94399838 390.53746491 455.94838988 401.10795016 455.93479197 411.67855076 C455.92825013 417.07293596 455.92818904 422.46711671 455.94549847 427.86148262 C455.96118036 432.7993724 455.95841553 437.73689478 455.9409302 442.67477532 C455.93784953 444.46143364 455.94153269 446.24811905 455.95265035 448.03474543 C456.05698714 465.9905883 456.05698714 465.9905883 449.47691631 473.49945641 C448.82593975 474.03828453 448.17496319 474.57711266 447.50426006 475.13226891 C446.85586163 475.68656578 446.20746319 476.24086266 445.53941631 476.81195641 C440.81628104 480.06625818 436.502422 480.54752843 430.88352013 480.51453781 C430.12713301 480.51804389 429.3707459 480.52154996 428.59143797 480.52516228 C426.04836434 480.53449104 423.50551897 480.52954918 420.96243572 480.52469444 C419.12415912 480.52842996 417.28588411 480.53303108 415.44761163 480.53842509 C410.38923322 480.55068269 405.3309208 480.55039137 400.27253091 480.54803634 C394.81978002 480.54762887 389.36705049 480.55866062 383.9143095 480.56815147 C373.22879553 480.58477751 362.54330362 480.59026174 351.8577778 480.59137623 C343.17375099 480.59232593 334.48973148 480.59643233 325.80570698 480.60277748 C301.19523196 480.62039416 276.58477338 480.62962781 251.97429212 480.62811653 C251.31090231 480.62807664 250.6475125 480.62803675 249.96401996 480.62799565 C248.62248385 480.62791478 247.28094774 480.62783118 245.93941163 480.62774487 C225.06703833 480.62651935 204.19473001 480.64153239 183.3223753 480.66889 C159.87485053 480.69961021 136.4273614 480.71679719 112.97981435 480.71496356 C100.56389815 480.71429902 88.14805523 480.71981897 75.7321558 480.74131966 C65.16156406 480.75950722 54.59107881 480.76389872 44.02047821 480.75030081 C38.62609301 480.74375897 33.23191226 480.74369788 27.83754635 480.76100731 C22.89965657 480.7766892 17.96213419 480.77392437 13.02425364 480.75643905 C11.23759533 480.75335838 9.45090992 480.75704153 7.66428354 480.7681592 C-10.29155933 480.87249599 -10.29155933 480.87249599 -17.80042744 474.29242516 C-18.33925556 473.64144859 -18.87808369 472.99047203 -19.43323994 472.31976891 C-19.98753681 471.67137047 -20.54183369 471.02297203 -21.11292744 470.35492516 C-24.36722921 465.63178988 -24.84849946 461.31793084 -24.81550884 455.69902897 C-24.82076795 454.5644483 -24.82076795 454.5644483 -24.82613331 453.40694681 C-24.83546207 450.86387318 -24.83052021 448.32102781 -24.82566547 445.77794456 C-24.82940099 443.93966797 -24.83400211 442.10139295 -24.83939612 440.26312047 C-24.85165372 435.20474206 -24.85136241 430.14642964 -24.84900737 425.08803976 C-24.8485999 419.63528886 -24.85963165 414.18255933 -24.86912251 408.72981834 C-24.88574854 398.04430437 -24.89123277 387.35881246 -24.89234726 376.67328664 C-24.89329696 367.98925983 -24.89740336 359.30524032 -24.90374851 350.62121582 C-24.92136519 326.0107408 -24.93059884 301.40028222 -24.92908756 276.78980096 C-24.92904767 276.12641115 -24.92900778 275.46302134 -24.92896668 274.7795288 C-24.92888581 273.43799269 -24.92880221 272.09645658 -24.9287159 270.75492048 C-24.92749038 249.88254717 -24.94250342 229.01023885 -24.96986103 208.13788414 C-25.00058124 184.69035938 -25.01776822 161.24287024 -25.01593459 137.79532319 C-25.01527006 125.37940699 -25.02079 112.96356407 -25.04229069 100.54766464 C-25.06047825 89.9770729 -25.06486975 79.40658765 -25.05127184 68.83598705 C-25.04473 63.44160185 -25.04466891 58.0474211 -25.06197834 52.65305519 C-25.07766023 47.71516542 -25.0748954 42.77764304 -25.05741008 37.83976249 C-25.05432941 36.05310417 -25.05801256 34.26641876 -25.06913023 32.47979238 C-25.17346702 14.52394951 -25.17346702 14.52394951 -18.59339619 7.01508141 C-17.94241962 6.47625328 -17.29144306 5.93742516 -16.62073994 5.38226891 C-15.9723415 4.82797203 -15.32394306 4.27367516 -14.65589619 3.70258141 C-9.93276091 0.44827963 -5.61890187 -0.03299062 0 0 Z M-8.55823994 21.25726891 C-9.04962208 23.94637615 -9.22980498 26.00229015 -9.18185902 28.68333244 C-9.18852703 29.42542298 -9.19519504 30.16751352 -9.20206511 30.93209165 C-9.21835045 33.42696216 -9.19890156 35.92027437 -9.1796999 38.41510582 C-9.18402748 40.21840175 -9.19054218 42.02169353 -9.19905996 43.82497454 C-9.21609308 48.78668879 -9.20184125 53.74790033 -9.18254519 58.70958829 C-9.16714953 64.05799607 -9.18051194 69.40634099 -9.1902895 74.75475121 C-9.20483479 85.23478613 -9.19256313 95.7146277 -9.17117625 106.19464433 C-9.14719564 118.39221202 -9.14887882 130.58973512 -9.15148216 142.78732115 C-9.15517453 164.54703798 -9.13432791 186.30666355 -9.10023212 208.06635094 C-9.06713939 229.19365305 -9.05297359 250.32085937 -9.0592165 271.44818687 C-9.06597683 294.43973218 -9.06353043 317.43123733 -9.0438571 340.4227767 C-9.04281761 341.63798123 -9.04177813 342.85318577 -9.04070714 344.10521469 C-9.0386162 346.54607277 -9.03650523 348.98693083 -9.03437397 351.42778888 C-9.02747131 359.93547152 -9.02681023 368.4431418 -9.02825642 376.95082664 C-9.02969446 387.31509476 -9.02003557 397.67928463 -8.99631006 408.04352677 C-8.98443028 413.33420925 -8.97733806 418.62478254 -8.98314762 423.91547775 C-8.98830495 428.75510279 -8.97968262 433.59449676 -8.95987302 438.43408221 C-8.95511835 440.18837789 -8.95545212 441.94269597 -8.96128339 443.6969884 C-8.96842734 446.07533816 -8.9572445 448.45291437 -8.94134998 450.83120537 C-8.95102769 451.86100735 -8.95102769 451.86100735 -8.9609009 452.9116134 C-8.90711372 457.17783766 -8.15336274 459.85605633 -5.55823994 463.25726891 C-2.63561086 464.71858345 0.29541306 464.39685906 3.49868011 464.38869667 C4.23730912 464.3907493 4.97593813 464.39280194 5.73694983 464.39491677 C8.23759408 464.40061767 10.73818378 464.39912574 13.23883343 464.3977108 C15.03953448 464.40029267 16.84023497 464.40330532 18.64093465 464.4067142 C23.6092535 464.41480841 28.57755792 464.41657511 33.54588258 464.41731167 C38.89637192 464.41915802 44.24685369 464.42670322 49.59733868 464.43344688 C61.30585922 464.4470478 73.01437636 464.45305763 84.72290349 464.45745754 C92.02872271 464.46021694 99.3345406 464.46445372 106.64035892 464.46896172 C126.85361714 464.48115656 147.06687429 464.49145553 167.28013611 464.49483681 C169.22191321 464.49516616 169.22191321 464.49516616 171.20291812 464.49550216 C172.5005969 464.49572044 173.79827567 464.49593871 175.13527805 464.49616361 C177.76502661 464.49660708 180.39477517 464.49705364 183.02452374 464.49750328 C184.32897984 464.49772471 185.63343594 464.49794614 186.97742101 464.49817428 C208.12270672 464.50212378 229.26795799 464.51958148 250.4132304 464.5428628 C272.10390726 464.56655258 293.79456683 464.57903757 315.48525685 464.58020473 C327.67139763 464.58112281 339.85749356 464.58690867 352.04362202 464.60502434 C362.41892396 464.62039331 372.79416718 464.62556478 383.16947833 464.61728624 C388.46622787 464.61336837 393.76285904 464.61436452 399.05959415 464.62834358 C403.90486951 464.64101459 408.74993674 464.63994522 413.59521153 464.62775287 C415.35162405 464.62578402 417.10805098 464.62892865 418.86444322 464.63759723 C421.24565649 464.64860903 423.62612478 464.64125967 426.00731659 464.6292057 C426.69470878 464.6368009 427.38210098 464.64439609 428.09032324 464.65222144 C432.35099907 464.60542286 435.08453518 463.92060614 438.44176006 461.25726891 C439.599414 457.78430708 439.58242146 454.68596225 439.57318783 451.07450771 C439.57524046 450.33442527 439.5772931 449.59434282 439.57940793 448.83183363 C439.58509798 446.33227659 439.58361822 443.8327743 439.58220196 441.3332119 C439.58478443 439.5309351 439.58779726 437.72865887 439.59120536 435.92638344 C439.59929221 430.95839332 439.60106586 425.99041764 439.60180283 421.02242172 C439.60365042 415.67060575 439.61119618 410.31879733 439.61793804 404.9669857 C439.63153303 393.25859151 439.63754767 381.55020074 439.6419487 369.84179997 C439.6447087 362.53615067 439.64894556 355.23050269 439.65345287 347.92485428 C439.6656462 327.71155346 439.67594595 307.49825372 439.67932796 287.2849493 C439.67954753 285.9907148 439.6797671 284.69648029 439.67999332 283.36302656 C439.68021159 282.06564042 439.68042987 280.76825429 439.68065476 279.43155342 C439.68109824 276.80241366 439.6815448 274.1732739 439.68199444 271.54413414 C439.68221587 270.23998123 439.6824373 268.93582832 439.68266544 267.59215563 C439.68661594 246.44625794 439.70407738 225.30039466 439.72735396 204.15451027 C439.75103953 182.46267656 439.76352851 160.77086014 439.76469588 139.07901329 C439.76561413 126.89236035 439.77140407 114.70575225 439.7895155 102.51911163 C439.8048787 92.14490328 439.81005932 81.77075362 439.80177739 71.39653606 C439.79785767 66.09990348 439.79886469 60.80338927 439.81283474 55.50677109 C439.82549452 50.66282152 439.82444647 45.81908022 439.81224403 40.97513127 C439.81027321 39.21809348 439.81342864 37.46104134 439.82208839 35.70402379 C439.83307895 33.32438287 439.82576648 30.94549029 439.81369686 28.56587124 C439.82129205 27.87613788 439.82888725 27.18640452 439.8367126 26.47577015 C439.80380098 23.49117728 439.57185283 21.49045658 438.10601401 18.86298126 C434.72460039 15.60051183 430.6583694 16.1126422 426.26179218 16.12025452 C425.52200933 16.11760269 424.78222648 16.11495086 424.02002597 16.11221868 C421.52148207 16.10451096 419.02298719 16.10396595 416.52443218 16.10336876 C414.72286775 16.09935513 412.92130423 16.09491708 411.1197418 16.0900892 C406.15368581 16.07810718 401.18763954 16.07247151 396.22157192 16.06790805 C390.87177929 16.0619583 385.52199833 16.05034708 380.17221355 16.03961754 C367.24637763 16.01508194 354.32053785 16.00046614 341.3946858 15.98755747 C337.74600913 15.98384685 334.09733285 15.97987353 330.44865656 15.97580481 C307.80619243 15.95057329 285.16372772 15.92851336 262.52125263 15.91607666 C257.27535404 15.91314682 252.02945548 15.91018517 246.78355694 15.90717125 C244.82772104 15.90605217 244.82772104 15.90605217 242.83237331 15.90491049 C221.69359254 15.89224735 200.55489571 15.85901176 179.41615422 15.81736942 C157.72996655 15.77499752 136.04382191 15.75138725 114.35759294 15.7461561 C102.17478228 15.74273695 89.99210286 15.73092227 77.80933285 15.69805336 C67.43769029 15.67011708 57.06620587 15.6590253 46.69452859 15.67024882 C41.39971523 15.67545163 36.10523338 15.67244365 30.81046772 15.64778328 C25.96696466 15.62541217 21.12403358 15.62593554 16.28052132 15.64498715 C14.52480581 15.64780426 12.7690525 15.64209451 11.01339813 15.62717421 C8.63269846 15.60817293 6.2540606 15.61978319 3.87341022 15.63923645 C3.18630388 15.62638723 2.49919753 15.61353801 1.79126978 15.60029942 C-3.3173944 15.69248809 -5.62479597 17.1204629 -8.55823994 21.25726891 Z " fill="#000000" transform="translate(40.55823993682861,15.742731094360352)"/>
<path d="M0 0 C3.45181623 0.12066093 6.90412399 0.13007728 10.35772347 0.15248275 C16.8659866 0.21101128 23.36801893 0.36613077 29.87356478 0.55812305 C38.02334306 0.79329784 46.1741834 0.89575598 54.32651925 0.99875045 C68.83329851 1.18259839 83.32652701 1.56325439 97.83237863 1.92648482 C97.83237863 20.40648482 97.83237863 38.88648482 97.83237863 57.92648482 C76.83237863 57.98898482 76.83237863 57.98898482 70.25034738 57.95407271 C68.50682334 57.97469725 66.76332695 57.99788533 65.01987863 58.02414107 C64.13235909 58.0099211 63.24483956 57.99570113 62.3304255 57.98105025 C56.05856931 58.12098496 52.94497352 59.77356645 48.48934579 64.17823958 C47.94254663 64.75516051 47.39574746 65.33208144 46.83237863 65.92648482 C45.93648019 66.76695357 45.04058175 67.60742232 44.11753488 68.47335982 C43.38405831 69.20039107 42.65058175 69.92742232 41.89487863 70.67648482 C41.14335519 71.41382857 40.39183175 72.15117232 39.61753488 72.91085982 C37.62484753 74.89531551 37.62484753 74.89531551 36.83237863 77.92648482 C37.63675363 78.23585982 37.63675363 78.23585982 38.45737863 78.55148482 C41.83414403 80.50645427 44.13712702 83.10872178 46.83237863 85.92648482 C50.7161417 84.40967828 52.34441568 82.06493545 54.88706613 78.84054732 C58.96781506 74.67587553 61.83680528 73.29508583 67.49427438 72.97369552 C71.66915295 72.93248579 75.78209476 73.09496855 79.95737863 73.30148482 C85.85612863 73.50773482 91.75487863 73.71398482 97.83237863 73.92648482 C97.83237863 92.40648482 97.83237863 110.88648482 97.83237863 129.92648482 C50.31237863 129.92648482 2.79237863 129.92648482 -46.16762137 129.92648482 C-46.16762137 119.36648482 -46.16762137 108.80648482 -46.16762137 97.92648482 C-38.42362148 97.67365774 -30.69480882 97.4335949 -22.95025992 97.30548263 C-19.3433212 97.24247383 -15.73984543 97.15855025 -12.13490653 97.02121139 C14.36171895 96.03685644 14.36171895 96.03685644 21.25626779 102.27285933 C23.43600156 104.69670937 25.18031036 107.11384653 26.83237863 109.92648482 C30.01324381 108.41701971 32.13107768 106.84706657 34.58237863 104.30148482 C35.19597238 103.6698442 35.80956613 103.03820357 36.44175363 102.38742232 C36.90065988 101.90531295 37.35956613 101.42320357 37.83237863 100.92648482 C36.52555061 98.04599366 35.1273686 95.96561052 32.89878488 93.72726607 C32.33224191 93.15814498 31.76569894 92.58902389 31.181988 92.0026567 C30.29736886 91.12963912 30.29736886 91.12963912 29.39487863 90.23898482 C28.80899972 89.64537154 28.22312081 89.05175826 27.619488 88.4401567 C26.76773995 87.59227584 26.76773995 87.59227584 25.89878488 86.72726607 C25.12450143 85.95636642 25.12450143 85.95636642 24.33457589 85.16989303 C21.05907492 82.45867468 17.48659499 82.77520771 13.4332087 82.72116256 C12.4669481 82.70631316 12.4669481 82.70631316 11.48116708 82.69116378 C9.35478523 82.65961016 7.22838104 82.63481577 5.10190988 82.61007857 C3.62645541 82.58950373 2.15100676 82.56850712 0.67556405 82.54710555 C-3.20581188 82.49193957 -7.08724053 82.4425062 -10.9687078 82.39425826 C-15.62688559 82.3351658 -20.28496716 82.26896796 -24.9430654 82.20395827 C-32.01785857 82.1060176 -39.09271376 82.0171146 -46.16762137 81.92648482 C-46.16762137 71.36648482 -46.16762137 60.80648482 -46.16762137 49.92648482 C-42.84437797 49.90461104 -42.84437797 49.90461104 -39.45399833 49.88229537 C-32.12968419 49.83193276 -24.80558228 49.76533475 -17.48147655 49.69076991 C-13.04134606 49.64606398 -8.60130737 49.6068084 -4.16102958 49.58004928 C0.12501224 49.55401843 4.41070083 49.51361774 8.6965239 49.46329856 C10.33071456 49.44662833 11.96496631 49.43511501 13.59923005 49.42887092 C15.89045667 49.41923131 18.18077933 49.39117523 20.47178292 49.35885787 C22.42703141 49.34220328 22.42703141 49.34220328 24.42177987 49.32521224 C30.43436962 48.62229039 33.71531637 45.29808514 37.87925363 41.14523482 C38.80608956 40.22097701 39.7329255 39.2967192 40.68784738 38.34445357 C41.16270577 37.86540572 41.63756417 37.38635787 42.12681222 36.89279342 C43.58507699 35.42376654 45.053776 33.96578062 46.52378488 32.50851607 C47.44546456 31.58425826 48.36714425 30.66000045 49.31675363 29.70773482 C50.58084054 28.44026412 50.58084054 28.44026412 51.87046456 27.14718795 C54.02515578 25.00002867 54.02515578 25.00002867 54.83237863 21.92648482 C54.17237863 21.92648482 53.51237863 21.92648482 52.83237863 21.92648482 C50.20737863 19.55148482 50.20737863 19.55148482 47.83237863 16.92648482 C47.83237863 16.26648482 47.83237863 15.60648482 47.83237863 14.92648482 C45.52407863 14.05104717 45.52407863 14.05104717 42.83237863 13.92648482 C40.85788725 15.6370486 40.85788725 15.6370486 39.22593331 18.15988326 C33.19210096 25.91568588 27.0403578 33.72132195 16.86499429 35.35271621 C7.76663361 36.32588839 -1.41366164 35.82072152 -10.5266912 35.29977584 C-14.55457516 35.09207345 -18.58510287 35.00320361 -22.61684012 34.90304732 C-30.47435569 34.69094791 -38.31810632 34.34320341 -46.16762137 33.92648482 C-46.91681276 27.02592885 -47.20816882 21.3811451 -43.03790641 15.5659349 C-30.28736768 0.97301806 -18.72526165 -0.76779722 0 0 Z " fill="#84B8E3" transform="translate(230.16762137413025,190.07351517677307)"/>
<path d="M0 0 C1.18191925 -0.00571014 2.3638385 -0.01142029 3.58157349 -0.01730347 C4.88498184 -0.01842133 6.1883902 -0.01953918 7.53129578 -0.02069092 C8.91262444 -0.02531833 10.29395182 -0.03034289 11.67527771 -0.03573608 C15.43363911 -0.04887036 19.19198263 -0.05530715 22.9503634 -0.05974674 C25.29789677 -0.0626761 27.64542525 -0.06678067 29.99295616 -0.07125092 C37.33618088 -0.08492918 44.67939441 -0.09459396 52.02263099 -0.09845281 C60.50223713 -0.10293311 68.98168204 -0.12047827 77.46123916 -0.1494534 C84.01332375 -0.17106573 90.56536298 -0.18115686 97.11748284 -0.18249393 C101.03174704 -0.18354238 104.94585974 -0.18945839 108.86008644 -0.20731354 C112.54303027 -0.22378633 116.22570862 -0.22595372 119.90867615 -0.21717453 C121.9032382 -0.21603637 123.8977914 -0.22976028 125.89230347 -0.243927 C127.08268219 -0.23835785 128.27306091 -0.2327887 129.49951172 -0.22705078 C130.5320876 -0.22851734 131.56466349 -0.2299839 132.62852955 -0.2314949 C135.90271644 0.20162023 137.7885787 1.20176818 140.44023132 3.14044189 C141.79492207 5.8498234 141.57239491 7.96929344 141.58067322 11.00392151 C141.58638336 12.25315399 141.59209351 13.50238647 141.59797668 14.78947449 C141.59922211 16.18161001 141.60034719 17.57374564 141.60136414 18.96588135 C141.60599138 20.42602667 141.61101592 21.88617078 141.6164093 23.34631348 C141.62954506 27.31954408 141.63598064 31.29275778 141.64041996 35.26600671 C141.64334903 37.74754773 141.64745354 40.2290841 141.65192413 42.71062279 C141.66560269 50.47245332 141.67526737 58.23427327 141.67912602 65.99611503 C141.68360662 74.96020173 141.701153 83.92413594 141.73012662 92.88817626 C141.75173597 99.81393062 141.76182992 106.73964205 141.76316714 113.66542977 C141.76421579 117.80325597 141.77013607 121.94093889 141.78798676 126.07872963 C141.8044544 129.97178773 141.8066294 133.86459467 141.79784775 137.75767517 C141.79707664 139.18592183 141.8014298 140.61418192 141.811306 142.04239464 C141.82400618 143.99355924 141.816364 145.94482454 141.807724 147.89601135 C141.80919056 148.98758199 141.81065712 150.07915262 141.81216812 151.20380116 C141.38514341 154.57539053 140.49961399 156.45293612 138.44023132 159.14044189 C135.03537458 160.27539414 132.43376626 160.27204593 128.84234619 160.28088379 C128.16881904 160.28385491 127.49529189 160.28682603 126.80135483 160.28988719 C124.53977314 160.29857331 122.27824439 160.30008235 120.01664734 160.30157471 C118.39709866 160.30620286 116.77755107 160.31122751 115.15800476 160.31661987 C110.7551621 160.32974415 106.35233469 160.33618861 101.94947553 160.34063053 C99.20008911 160.34356055 96.45070687 160.34766517 93.70132256 160.3521347 C85.10281982 160.36580825 76.50432661 160.37547622 67.90581375 160.3793366 C57.97276491 160.38382043 48.03985345 160.40138401 38.10684639 160.43033719 C30.43289868 160.45193108 22.75898969 160.46203961 15.0850119 160.46337771 C10.49954858 160.46442717 5.91421443 160.47036511 1.32878304 160.48819733 C-2.98287353 160.50463897 -7.29430324 160.50685264 -11.60597992 160.49805832 C-13.1894523 160.4972859 -14.77293668 160.5016575 -16.35637856 160.51151657 C-18.51615798 160.52417689 -20.6751267 160.51839241 -22.8348999 160.50793457 C-24.04408301 160.50940113 -25.25326612 160.51086769 -26.49909115 160.51237869 C-29.84275886 160.10605263 -31.21346394 159.51865944 -33.55976868 157.14044189 C-34.54936594 154.17165012 -34.69925502 152.18787804 -34.72712708 149.08802795 C-34.73861786 148.04369598 -34.75010864 146.99936401 -34.76194763 145.92338562 C-34.77305069 144.20515343 -34.77305069 144.20515343 -34.78437805 142.45220947 C-34.79576813 141.24542542 -34.8071582 140.03864136 -34.81889343 138.79528809 C-34.85397955 134.79186663 -34.88066865 130.78847894 -34.90351868 126.78497314 C-34.90746454 126.10311628 -34.91141041 125.42125942 -34.91547585 124.71874022 C-34.95189587 118.28405901 -34.98332846 111.84936668 -35.00458527 105.41461658 C-35.03214387 97.19469807 -35.08288358 88.97564387 -35.16505957 80.75608522 C-35.22093173 74.97081834 -35.24983277 69.18578536 -35.25905848 63.40025824 C-35.26530374 59.94776121 -35.28331175 56.49627821 -35.33044434 53.04407692 C-35.38244359 49.18768127 -35.37865535 45.33240645 -35.37031555 41.47564697 C-35.39391144 40.34028 -35.41750732 39.20491302 -35.44181824 38.03514099 C-35.38248841 32.36134193 -34.9559408 28.91313309 -31.17153931 24.54000854 C-29.99027853 23.38321473 -28.78803716 22.24719637 -27.55976868 21.14044189 C-26.70213928 20.2401123 -25.84450989 19.33978271 -24.96089172 18.41217041 C-24.17238831 17.62253906 -23.38388489 16.83290771 -22.57148743 16.01934814 C-21.70072571 15.14729736 -20.82996399 14.27524658 -19.93281555 13.37677002 C-19.04658508 12.49440674 -18.16035461 11.61204346 -17.24726868 10.70294189 C-16.34170227 9.7935083 -15.43613586 8.88407471 -14.50312805 7.94708252 C-13.63881165 7.08405518 -12.77449524 6.22102783 -11.88398743 5.33184814 C-11.10112366 4.5501123 -10.31825989 3.76837646 -9.51167297 2.96295166 C-6.30098331 -0.03489678 -4.30388328 0.0124123 0 0 Z M-17.2490139 32.31633568 C-19.62652643 37.43884069 -19.15761148 42.63390802 -18.55976868 48.14044189 C-9.9094553 48.59967362 -1.26616865 48.96156369 7.39343643 49.17668533 C11.41740552 49.28007832 15.43256841 49.4194912 19.45146179 49.64923096 C39.37683024 51.29688779 39.37683024 51.29688779 56.9617157 43.56427002 C61.33686251 39.36190464 65.1281906 34.81229544 68.60398865 29.84301758 C69.51292877 29.00024261 69.51292877 29.00024261 70.44023132 28.14044189 C73.16563416 28.37585449 73.16563416 28.37585449 75.44023132 29.14044189 C75.44023132 29.80044189 75.44023132 30.46044189 75.44023132 31.14044189 C77.77356466 33.80710856 77.77356466 33.80710856 80.44023132 36.14044189 C81.10023132 36.14044189 81.76023132 36.14044189 82.44023132 36.14044189 C80.2843795 40.06128786 77.81421568 43.02365895 74.65898132 46.18731689 C73.2725946 47.5775708 73.2725946 47.5775708 71.85820007 48.99591064 C71.37915222 49.47076904 70.90010437 49.94562744 70.40653992 50.43487549 C68.93751304 51.89314026 67.47952712 53.36183927 66.02226257 54.83184814 C65.09800476 55.75352783 64.17374695 56.67520752 63.22148132 57.62481689 C62.37650085 58.4675415 61.53152039 59.31026611 60.66093445 60.17852783 C56.79426144 63.59459911 53.28505293 63.28659851 48.3066864 63.34576416 C47.5844841 63.35566376 46.8622818 63.36556335 46.11819458 63.37576294 C43.73208388 63.40733949 41.34595327 63.43212012 38.95976257 63.45684814 C37.30494673 63.477421 35.65013611 63.49841756 33.99533081 63.51982117 C29.64047979 63.57500765 25.28558161 63.62443202 20.9306488 63.67266846 C16.48653467 63.72290847 12.042489 63.77858149 7.59843445 63.83380127 C-1.12091028 63.941341 -9.84031318 64.04229319 -18.55976868 64.14044189 C-18.55976868 74.70044189 -18.55976868 85.26044189 -18.55976868 96.14044189 C-11.5002179 96.19651611 -11.5002179 96.19651611 -4.29804993 96.25372314 C-1.31298755 96.28400628 1.67201544 96.31515621 4.6570282 96.34942627 C9.39291874 96.40371516 14.12869182 96.45482634 18.86479187 96.48687744 C22.6840189 96.51292478 26.50285063 96.55333674 30.32183266 96.60362816 C31.77738839 96.62028731 33.23301248 96.63180754 34.68865013 96.6380558 C36.73085651 96.64770775 38.77205379 96.67577713 40.81401062 96.70806885 C41.97539047 96.71917191 43.13677032 96.73027496 44.33334351 96.74171448 C49.24474486 97.37202703 52.38133617 99.81773068 55.77226257 103.27716064 C56.34267273 103.85401611 56.91308289 104.43087158 57.5007782 105.02520752 C58.07892273 105.62010986 58.65706726 106.21501221 59.25273132 106.82794189 C59.85021179 107.4344458 60.44769226 108.04094971 61.0632782 108.66583252 C62.52687317 110.15284501 63.98419235 111.64603 65.44023132 113.14044189 C64.03178415 116.35568495 62.33678347 118.46228057 59.81523132 120.89044189 C59.1835907 121.50403564 58.55195007 122.11762939 57.90116882 122.74981689 C57.41905945 123.20872314 56.93695007 123.66762939 56.44023132 124.14044189 C52.57584217 122.61173631 50.72405427 120.21887833 48.08525085 117.07647705 C44.04203421 112.97308333 41.47240291 111.41714067 35.70536804 111.00518799 C33.1763322 111.00675308 30.64691025 111.06219818 28.11991882 111.16387939 C26.7666298 111.18257531 25.4132722 111.19678882 24.05989075 111.20675659 C20.53006289 111.24459786 17.00447623 111.34249122 13.4763031 111.45379639 C9.86331077 111.55685856 6.24959929 111.60247711 2.63554382 111.65216064 C-4.43328232 111.75349129 -11.49052815 111.94915156 -18.55976868 112.14044189 C-18.55976868 122.70044189 -18.55976868 133.26044189 -18.55976868 144.14044189 C28.96023132 144.14044189 76.48023132 144.14044189 125.44023132 144.14044189 C125.44023132 125.66044189 125.44023132 107.18044189 125.44023132 88.14044189 C116.65398132 87.76919189 116.65398132 87.76919189 107.69023132 87.39044189 C105.86781921 87.28119385 104.0454071 87.1719458 102.16777039 87.05938721 C92.7440084 86.70886299 92.7440084 86.70886299 84.55937195 90.86505127 C81.52442427 93.71729881 78.93595296 96.81156205 76.44023132 100.14044189 C73.4994121 98.73698945 71.53071355 97.41651426 69.31523132 95.01544189 C67.87271041 93.4055396 67.87271041 93.4055396 66.44023132 92.14044189 C65.78023132 92.14044189 65.12023132 92.14044189 64.44023132 92.14044189 C66.91042479 87.4302522 70.24529622 84.06933875 74.00273132 80.39044189 C74.59247742 79.80134033 75.18222351 79.21223877 75.7898407 78.60528564 C81.41105765 73.04162381 81.41105765 73.04162381 86.61454773 72.93511963 C87.48732361 72.91493774 88.36009949 72.89475586 89.25932312 72.8739624 C90.63664612 72.84924866 90.63664612 72.84924866 92.04179382 72.82403564 C92.8850824 72.80538452 93.72837097 72.7867334 94.59721375 72.76751709 C97.75311108 72.69911996 100.90918414 72.63903478 104.06523132 72.57794189 C111.11898132 72.43356689 118.17273132 72.28919189 125.44023132 72.14044189 C125.44023132 53.66044189 125.44023132 35.18044189 125.44023132 16.14044189 C102.61571128 15.56861863 102.61571128 15.56861863 79.79018307 15.1856184 C71.61773986 15.08076146 63.44902445 14.9481967 55.27934265 14.70709229 C48.80521054 14.51612021 42.3339027 14.39477964 35.85703212 14.35276049 C32.43398808 14.32823199 29.01901246 14.27181926 25.59859276 14.13157082 C6.86087981 13.4491688 -5.82603314 16.38759361 -17.2490139 32.31633568 Z " fill="#000000" transform="translate(202.5597686767578,175.85955810546875)"/>
<path d="M0 0 C27.823125 0.721875 55.64625 1.44375 84.3125 2.1875 C84.3125 65.5475 84.3125 128.9075 84.3125 194.1875 C15.6725 194.1875 -52.9675 194.1875 -123.6875 194.1875 C-124.409375 169.004375 -125.13125 143.82125 -125.875 117.875 C-126.19364014 109.99713623 -126.51228027 102.11927246 -126.84057617 94.00268555 C-128.39546028 32.7105035 -128.39546028 32.7105035 -111.59375 14.78125 C-85.96549536 -10.0711173 -30.89371122 -1.12978047 0 0 Z M-86.6875 25.1875 C-88.03799438 26.47394409 -88.03799438 26.47394409 -89.41577148 27.78637695 C-90.20540283 28.57488037 -90.99503418 29.36338379 -91.80859375 30.17578125 C-92.68064453 31.04654297 -93.55269531 31.91730469 -94.45117188 32.81445312 C-95.7747168 34.14379883 -95.7747168 34.14379883 -97.125 35.5 C-98.48915039 36.85834961 -98.48915039 36.85834961 -99.88085938 38.24414062 C-100.74388672 39.10845703 -101.60691406 39.97277344 -102.49609375 40.86328125 C-103.66869751 42.0375769 -103.66869751 42.0375769 -104.86499023 43.2355957 C-107.70766052 46.28008986 -107.81469363 48.07158952 -107.82794189 52.1398468 C-107.83365204 53.18713959 -107.83936218 54.23443237 -107.84524536 55.3134613 C-107.84636322 56.46725784 -107.84748108 57.62105438 -107.84863281 58.80981445 C-107.85359772 60.02127136 -107.85856262 61.23272827 -107.86367798 62.480896 C-107.87579996 65.80953564 -107.88324839 69.13811235 -107.88768864 72.4667666 C-107.89061866 74.54628474 -107.89472337 76.62579736 -107.89919281 78.70531273 C-107.91287038 85.21132581 -107.9225354 91.71732627 -107.9263947 98.22335273 C-107.93087433 105.73399923 -107.94841653 113.24446364 -107.9773953 120.75505477 C-107.99901473 126.55979991 -108.00909914 132.36449383 -108.01043582 138.1692788 C-108.0114838 141.63642033 -108.01738963 145.10339074 -108.03525543 148.57048988 C-108.05480328 152.43938693 -108.05044607 156.30805668 -108.04394531 160.17700195 C-108.0531601 161.3247258 -108.06237488 162.47244965 -108.0718689 163.654953 C-108.06629974 164.71070526 -108.06073059 165.76645752 -108.05499268 166.85420227 C-108.05645924 167.76878865 -108.0579258 168.68337503 -108.0594368 169.62567616 C-107.60612492 172.74799475 -106.51859883 174.63959254 -104.6875 177.1875 C-101.83310978 178.61469511 -99.40884349 178.32008388 -96.21659851 178.32794189 C-95.54463135 178.33091302 -94.87266419 178.33388414 -94.18033439 178.3369453 C-91.91798065 178.34564976 -89.65567972 178.34714201 -87.39331055 178.34863281 C-85.77553188 178.35325977 -84.15775432 178.35828427 -82.53997803 178.36367798 C-78.13700902 178.37681626 -73.73405526 178.38324978 -69.33106971 178.38768864 C-66.58151337 178.39061723 -63.83196123 178.39472164 -61.082407 178.39919281 C-52.48336483 178.41287187 -43.88433222 178.42253637 -35.28527993 178.4263947 C-25.352231 178.43087578 -15.41931966 178.44842427 -5.48631257 178.4773953 C2.18678137 178.49899956 9.85983656 178.50909832 17.53296059 178.51043582 C22.11791179 178.51148481 26.70273374 178.51741236 31.28765297 178.53525543 C35.60094089 178.55171431 39.91400208 178.55390229 44.22731018 178.54511642 C45.81036167 178.54434486 47.39342524 178.5487045 48.97644615 178.55857468 C51.13811749 178.57126211 53.29898198 178.56543555 55.46064758 178.55499268 C56.67020772 178.55645924 57.87976786 178.5579258 59.12598133 178.5594368 C62.645398 178.14864348 64.53046575 177.35723842 67.3125 175.1875 C68.39145709 171.95062873 68.44365532 169.60244758 68.45294189 166.19703674 C68.45865204 164.94498444 68.46436218 163.69293213 68.47024536 162.40293884 C68.47149069 161.012848 68.47261579 159.62275704 68.47363281 158.23266602 C68.47826138 156.77075068 68.48328609 155.30883655 68.48867798 153.84692383 C68.50179822 149.87381957 68.50824592 145.90073221 68.51268864 141.92760968 C68.51561929 139.44623859 68.51972404 136.96487211 68.52419281 134.48350334 C68.53786526 126.72221223 68.54753378 118.96093168 68.5513947 111.19962937 C68.55587835 102.23554277 68.57344145 93.27160843 68.6023953 84.30756813 C68.62399315 77.38095999 68.63409793 70.45439476 68.63543582 63.52775329 C68.63648499 59.38941499 68.64241678 55.25121986 68.66025543 51.11291695 C68.67670396 47.22149018 68.67890744 43.33031474 68.67011642 39.43886566 C68.66934438 38.01019812 68.67371081 36.58151723 68.68357468 35.15288353 C68.69624476 33.20361213 68.68864369 31.25424028 68.67999268 29.3049469 C68.68145924 28.21375329 68.6829258 27.12255968 68.6844368 25.9982996 C68.26264928 22.81076833 67.5600848 21.4561868 65.3125 19.1875 C62.17537395 18.14179132 59.9464403 18.04635361 56.65266418 18.0201416 C54.88422653 18.00290543 54.88422653 18.00290543 53.08006287 17.98532104 C51.78496292 17.97791901 50.48986298 17.97051697 49.15551758 17.96289062 C47.77890762 17.95171352 46.40230035 17.94020014 45.0256958 17.92837524 C40.50284604 17.89183433 35.97996856 17.86659909 31.45703125 17.84375 C30.68700453 17.83980413 29.9169778 17.83585827 29.12361693 17.83179283 C21.85851884 17.79537361 14.59341095 17.76393697 7.32825184 17.74268341 C-1.95662969 17.71511779 -11.24074659 17.66436549 -20.52530974 17.58220911 C-27.05791758 17.5263666 -33.59031829 17.49744012 -40.12315637 17.4882102 C-44.02273372 17.48196055 -47.92141418 17.46391134 -51.82073021 17.41682434 C-55.49251404 17.3730339 -59.16291443 17.36270589 -62.83491516 17.37745285 C-64.81589546 17.37696963 -66.79677359 17.34182077 -68.77742004 17.30545044 C-77.07965467 17.38246898 -81.22227692 18.91768941 -86.6875 25.1875 Z " fill="#F9D45B" transform="translate(275.6875,157.8125)"/>
<path d="M0 0 C5.28 0 10.56 0 16 0 C16 100.32 16 200.64 16 304 C-84.32 304 -184.64 304 -288 304 C-288 298.72 -288 293.44 -288 288 C-282.72 288 -277.44 288 -272 288 C-272 282.72 -272 277.44 -272 272 C-266.72 272 -261.44 272 -256 272 C-256 277.28 -256 282.56 -256 288 C-176.8 288 -97.6 288 -16 288 C-16 282.72 -16 277.44 -16 272 C-10.72 272 -5.44 272 0 272 C0 192.8 0 113.6 0 32 C-5.28 32 -10.56 32 -16 32 C-16 26.72 -16 21.44 -16 16 C-10.72 16 -5.44 16 0 16 C0 10.72 0 5.44 0 0 Z " fill="#356BAA" transform="translate(392,104)"/>
<path d="M0 0 C5.28 0 10.56 0 16 0 C16 18.48 16 36.96 16 56 C-31.52 56 -79.04 56 -128 56 C-128 50.72 -128 45.44 -128 40 C-125.84010025 39.99120064 -125.84010025 39.99120064 -123.63656616 39.98222351 C-110.07004228 39.9250237 -96.50366458 39.85245317 -82.93730736 39.76428509 C-75.96261482 39.71935022 -68.98797308 39.67993031 -62.01318359 39.65356445 C-55.28278469 39.62810685 -48.55264237 39.58718671 -41.82237625 39.53681374 C-39.2539819 39.52012208 -36.68554841 39.50862216 -34.11710739 39.50238609 C-30.52102674 39.49277038 -26.92552767 39.46473978 -23.32958984 39.43237305 C-22.26647583 39.43380814 -21.20336182 39.43524323 -20.10803223 39.4367218 C-14.66627206 39.36740321 -10.67175915 39.1164859 -6 36 C-1.33418638 31.08198024 -0.90170894 27.30889933 -0.68359375 20.703125 C-0.64169922 19.49785156 -0.59980469 18.29257812 -0.55664062 17.05078125 C-0.51732422 15.79652344 -0.47800781 14.54226563 -0.4375 13.25 C-0.39431641 11.98027344 -0.35113281 10.71054687 -0.30664062 9.40234375 C-0.20060345 6.2683562 -0.09980152 3.13419232 0 0 Z " fill="#6CA1C4" transform="translate(312,264)"/>
<path d="M0 0 C5.28 0 10.56 0 16 0 C16 18.48 16 36.96 16 56 C10.72 56 5.44 56 0 56 C0 37.52 0 19.04 0 0 Z " fill="#6CA1C4" transform="translate(312,192)"/>
<path d="M0 0 C5.28 0 10.56 0 16 0 C16.08127476 3.20884784 16.14063141 6.41561761 16.1875 9.625 C16.21263672 10.52863281 16.23777344 11.43226563 16.26367188 12.36328125 C16.33053847 18.47042998 15.79410632 22.9366699 11.5 27.64453125 C7.32923649 30.89207888 4.56737604 32.1310024 -0.66796875 32.09765625 C-1.56064453 32.09443359 -2.45332031 32.09121094 -3.37304688 32.08789062 C-4.76620117 32.07532227 -4.76620117 32.07532227 -6.1875 32.0625 C-7.59805664 32.05573242 -7.59805664 32.05573242 -9.03710938 32.04882812 C-11.35810008 32.03704645 -13.67905807 32.01911114 -16 32 C-16 26.72 -16 21.44 -16 16 C-11.01953125 15.4140625 -11.01953125 15.4140625 -6.0390625 14.828125 C-2.96646498 14.31528083 -2.96646498 14.31528083 -1.625 12.25 C-0.92399758 9.7263913 -0.58116435 7.36141514 -0.375 4.75 C-0.25125 3.1825 -0.1275 1.615 0 0 Z " fill="#484C4F" transform="translate(424,408)"/>
<path d="M0 0 C5.28 0 10.56 0 16 0 C16.42317708 3.3203125 16.84635417 6.640625 17.26953125 9.9609375 C17.70699334 13.29532084 17.70699334 13.29532084 21 15 C24.65912601 15.56131311 28.30257122 15.73900503 32 16 C32 21.28 32 26.56 32 32 C28.62413315 32.10831658 25.25176769 32.18746727 21.875 32.25 C20.92367187 32.28351563 19.97234375 32.31703125 18.9921875 32.3515625 C13.10998093 32.43325981 9.62516593 32.02411425 5 28 C1.24826454 23.84267152 -0.13312744 20.90100822 -0.09765625 15.33203125 C-0.09443359 14.43935547 -0.09121094 13.54667969 -0.08789062 12.62695312 C-0.07951172 11.69818359 -0.07113281 10.76941406 -0.0625 9.8125 C-0.05798828 8.87212891 -0.05347656 7.93175781 -0.04882812 6.96289062 C-0.03704645 4.64189992 -0.01911114 2.32094193 0 0 Z " fill="#484C4F" transform="translate(72,408)"/>
<path d="M0 0 C3.20884784 -0.08127476 6.41561761 -0.14063141 9.625 -0.1875 C10.52863281 -0.21263672 11.43226563 -0.23777344 12.36328125 -0.26367188 C18.46640723 -0.33049442 22.97973306 0.18060592 27.64453125 4.53515625 C30.79094692 8.64969981 32.12860389 10.65175493 32.09765625 15.7890625 C32.09443359 16.73007813 32.09121094 17.67109375 32.08789062 18.640625 C32.07532227 20.11789063 32.07532227 20.11789063 32.0625 21.625 C32.05798828 22.61757812 32.05347656 23.61015625 32.04882812 24.6328125 C32.03702161 27.08856722 32.01908582 29.54429106 32 32 C26.72 32 21.44 32 16 32 C15.70703125 27.84960938 15.70703125 27.84960938 15.4140625 23.69921875 C15.16134528 20.78471567 15.16134528 20.78471567 13 18 C9.89188713 17.19458793 9.89188713 17.19458793 6.375 16.8125 C3.219375 16.4103125 3.219375 16.4103125 0 16 C0 10.72 0 5.44 0 0 Z " fill="#484C4F" transform="translate(408,72)"/>
<path d="M0 0 C0.94101563 0.00322266 1.88203125 0.00644531 2.8515625 0.00976562 C3.83640625 0.01814453 4.82125 0.02652344 5.8359375 0.03515625 C6.82851562 0.03966797 7.82109375 0.04417969 8.84375 0.04882812 C11.29950472 0.06063464 13.75522856 0.07857043 16.2109375 0.09765625 C16.2109375 5.37765625 16.2109375 10.65765625 16.2109375 16.09765625 C13.6121875 16.22140625 13.6121875 16.22140625 10.9609375 16.34765625 C7.6742652 16.67716838 5.52454876 16.93338368 2.5859375 18.47265625 C0.3048745 22.82741288 0.44314437 27.22131202 0.2109375 32.09765625 C-5.0690625 32.09765625 -10.3490625 32.09765625 -15.7890625 32.09765625 C-15.89737908 28.7217894 -15.97652977 25.34942394 -16.0390625 21.97265625 C-16.07257813 21.02132812 -16.10609375 20.07 -16.140625 19.08984375 C-16.2222964 13.20950273 -15.81670232 9.71845758 -11.7890625 5.09765625 C-7.69479257 1.49079941 -5.41982671 -0.03264956 0 0 Z " fill="#484C4F" transform="translate(87.7890625,71.90234375)"/>
<path d="M0 0 C1.68359375 1.25390625 1.68359375 1.25390625 3 3 C3.84237626 9.67319944 0.8079792 14.82388457 -3 20 C-3.556875 20.86625 -4.11375 21.7325 -4.6875 22.625 C-10.09102221 28.17456335 -16.38988661 31.48860896 -24.08984375 32.28515625 C-26 32 -26 32 -27.74609375 30.78125 C-29.85515283 27.78520346 -29.23937294 25.25598138 -28.75 21.75390625 C-26.13878115 12.16583705 -18.27109009 5.85119067 -10 1 C-6.62128097 -0.10363268 -3.55223108 -0.30231754 0 0 Z " fill="#F3F4F6" transform="translate(145,142)"/>
<path d="M0 0 C5.28 0 10.56 0 16 0 C16 5.28 16 10.56 16 16 C10.72 16 5.44 16 0 16 C0 10.72 0 5.44 0 0 Z " fill="#484C4F" transform="translate(376,424)"/>
<path d="M0 0 C5.28 0 10.56 0 16 0 C16 5.28 16 10.56 16 16 C10.72 16 5.44 16 0 16 C0 10.72 0 5.44 0 0 Z " fill="#484C4F" transform="translate(344,424)"/>
<path d="M0 0 C5.28 0 10.56 0 16 0 C16 5.28 16 10.56 16 16 C10.72 16 5.44 16 0 16 C0 10.72 0 5.44 0 0 Z " fill="#484C4F" transform="translate(312,424)"/>
<path d="M0 0 C5.28 0 10.56 0 16 0 C16 5.28 16 10.56 16 16 C10.72 16 5.44 16 0 16 C0 10.72 0 5.44 0 0 Z " fill="#484C4F" transform="translate(280,424)"/>
<path d="M0 0 C5.28 0 10.56 0 16 0 C16 5.28 16 10.56 16 16 C10.72 16 5.44 16 0 16 C0 10.72 0 5.44 0 0 Z " fill="#484C4F" transform="translate(248,424)"/>
<path d="M0 0 C5.28 0 10.56 0 16 0 C16 5.28 16 10.56 16 16 C10.72 16 5.44 16 0 16 C0 10.72 0 5.44 0 0 Z " fill="#484C4F" transform="translate(216,424)"/>
<path d="M0 0 C5.28 0 10.56 0 16 0 C16 5.28 16 10.56 16 16 C10.72 16 5.44 16 0 16 C0 10.72 0 5.44 0 0 Z " fill="#484C4F" transform="translate(184,424)"/>
<path d="M0 0 C5.28 0 10.56 0 16 0 C16 5.28 16 10.56 16 16 C10.72 16 5.44 16 0 16 C0 10.72 0 5.44 0 0 Z " fill="#484C4F" transform="translate(152,424)"/>
<path d="M0 0 C5.28 0 10.56 0 16 0 C16 5.28 16 10.56 16 16 C10.72 16 5.44 16 0 16 C0 10.72 0 5.44 0 0 Z " fill="#484C4F" transform="translate(120,424)"/>
<path d="M0 0 C5.28 0 10.56 0 16 0 C16 5.28 16 10.56 16 16 C10.72 16 5.44 16 0 16 C0 10.72 0 5.44 0 0 Z " fill="#484C4F" transform="translate(424,376)"/>
<path d="M0 0 C5.28 0 10.56 0 16 0 C16 5.28 16 10.56 16 16 C10.72 16 5.44 16 0 16 C0 10.72 0 5.44 0 0 Z " fill="#000000" transform="translate(376,376)"/>
<path d="M0 0 C5.28 0 10.56 0 16 0 C16 5.28 16 10.56 16 16 C10.72 16 5.44 16 0 16 C0 10.72 0 5.44 0 0 Z " fill="#000000" transform="translate(120,376)"/>
<path d="M0 0 C5.28 0 10.56 0 16 0 C16 5.28 16 10.56 16 16 C10.72 16 5.44 16 0 16 C0 10.72 0 5.44 0 0 Z " fill="#484C4F" transform="translate(72,376)"/>
<path d="M0 0 C5.28 0 10.56 0 16 0 C16 5.28 16 10.56 16 16 C10.72 16 5.44 16 0 16 C0 10.72 0 5.44 0 0 Z " fill="#484C4F" transform="translate(424,344)"/>
<path d="M0 0 C5.28 0 10.56 0 16 0 C16 5.28 16 10.56 16 16 C10.72 16 5.44 16 0 16 C0 10.72 0 5.44 0 0 Z " fill="#484C4F" transform="translate(72,344)"/>
<path d="M0 0 C5.28 0 10.56 0 16 0 C16 5.28 16 10.56 16 16 C10.72 16 5.44 16 0 16 C0 10.72 0 5.44 0 0 Z " fill="#484C4F" transform="translate(424,312)"/>
<path d="M0 0 C5.28 0 10.56 0 16 0 C16 5.28 16 10.56 16 16 C10.72 16 5.44 16 0 16 C0 10.72 0 5.44 0 0 Z " fill="#484C4F" transform="translate(72,312)"/>
<path d="M0 0 C5.28 0 10.56 0 16 0 C16 5.28 16 10.56 16 16 C10.72 16 5.44 16 0 16 C0 10.72 0 5.44 0 0 Z " fill="#484C4F" transform="translate(424,280)"/>
<path d="M0 0 C5.28 0 10.56 0 16 0 C16 5.28 16 10.56 16 16 C10.72 16 5.44 16 0 16 C0 10.72 0 5.44 0 0 Z " fill="#484C4F" transform="translate(72,280)"/>
<path d="M0 0 C5.28 0 10.56 0 16 0 C16 5.28 16 10.56 16 16 C10.72 16 5.44 16 0 16 C0 10.72 0 5.44 0 0 Z " fill="#484C4F" transform="translate(424,248)"/>
<path d="M0 0 C5.28 0 10.56 0 16 0 C16 5.28 16 10.56 16 16 C10.72 16 5.44 16 0 16 C0 10.72 0 5.44 0 0 Z " fill="#484C4F" transform="translate(72,248)"/>
<path d="M0 0 C5.28 0 10.56 0 16 0 C16 5.28 16 10.56 16 16 C10.72 16 5.44 16 0 16 C0 10.72 0 5.44 0 0 Z " fill="#484C4F" transform="translate(424,216)"/>
<path d="M0 0 C5.28 0 10.56 0 16 0 C16 5.28 16 10.56 16 16 C10.72 16 5.44 16 0 16 C0 10.72 0 5.44 0 0 Z " fill="#484C4F" transform="translate(72,216)"/>
<path d="M0 0 C5.28 0 10.56 0 16 0 C16 5.28 16 10.56 16 16 C10.72 16 5.44 16 0 16 C0 10.72 0 5.44 0 0 Z " fill="#484C4F" transform="translate(424,184)"/>
<path d="M0 0 C5.28 0 10.56 0 16 0 C16 5.28 16 10.56 16 16 C10.72 16 5.44 16 0 16 C0 10.72 0 5.44 0 0 Z " fill="#484C4F" transform="translate(72,184)"/>
<path d="M0 0 C5.28 0 10.56 0 16 0 C16 5.28 16 10.56 16 16 C10.72 16 5.44 16 0 16 C0 10.72 0 5.44 0 0 Z " fill="#484C4F" transform="translate(424,152)"/>
<path d="M0 0 C5.28 0 10.56 0 16 0 C16 5.28 16 10.56 16 16 C10.72 16 5.44 16 0 16 C0 10.72 0 5.44 0 0 Z " fill="#484C4F" transform="translate(72,152)"/>
<path d="M0 0 C5.28 0 10.56 0 16 0 C16 5.28 16 10.56 16 16 C10.72 16 5.44 16 0 16 C0 10.72 0 5.44 0 0 Z " fill="#484C4F" transform="translate(424,120)"/>
<path d="M0 0 C5.28 0 10.56 0 16 0 C16 5.28 16 10.56 16 16 C10.72 16 5.44 16 0 16 C0 10.72 0 5.44 0 0 Z " fill="#000000" transform="translate(376,120)"/>
<path d="M0 0 C5.28 0 10.56 0 16 0 C16 5.28 16 10.56 16 16 C10.72 16 5.44 16 0 16 C0 10.72 0 5.44 0 0 Z " fill="#000000" transform="translate(120,120)"/>
<path d="M0 0 C5.28 0 10.56 0 16 0 C16 5.28 16 10.56 16 16 C10.72 16 5.44 16 0 16 C0 10.72 0 5.44 0 0 Z " fill="#484C4F" transform="translate(72,120)"/>
<path d="M0 0 C5.28 0 10.56 0 16 0 C16 5.28 16 10.56 16 16 C10.72 16 5.44 16 0 16 C0 10.72 0 5.44 0 0 Z " fill="#484C4F" transform="translate(376,72)"/>
<path d="M0 0 C5.28 0 10.56 0 16 0 C16 5.28 16 10.56 16 16 C10.72 16 5.44 16 0 16 C0 10.72 0 5.44 0 0 Z " fill="#484C4F" transform="translate(344,72)"/>
<path d="M0 0 C5.28 0 10.56 0 16 0 C16 5.28 16 10.56 16 16 C10.72 16 5.44 16 0 16 C0 10.72 0 5.44 0 0 Z " fill="#484C4F" transform="translate(312,72)"/>
<path d="M0 0 C5.28 0 10.56 0 16 0 C16 5.28 16 10.56 16 16 C10.72 16 5.44 16 0 16 C0 10.72 0 5.44 0 0 Z " fill="#484C4F" transform="translate(280,72)"/>
<path d="M0 0 C5.28 0 10.56 0 16 0 C16 5.28 16 10.56 16 16 C10.72 16 5.44 16 0 16 C0 10.72 0 5.44 0 0 Z " fill="#484C4F" transform="translate(248,72)"/>
<path d="M0 0 C5.28 0 10.56 0 16 0 C16 5.28 16 10.56 16 16 C10.72 16 5.44 16 0 16 C0 10.72 0 5.44 0 0 Z " fill="#484C4F" transform="translate(216,72)"/>
<path d="M0 0 C5.28 0 10.56 0 16 0 C16 5.28 16 10.56 16 16 C10.72 16 5.44 16 0 16 C0 10.72 0 5.44 0 0 Z " fill="#484C4F" transform="translate(184,72)"/>
<path d="M0 0 C5.28 0 10.56 0 16 0 C16 5.28 16 10.56 16 16 C10.72 16 5.44 16 0 16 C0 10.72 0 5.44 0 0 Z " fill="#484C4F" transform="translate(152,72)"/>
<path d="M0 0 C5.28 0 10.56 0 16 0 C16 5.28 16 10.56 16 16 C10.72 16 5.44 16 0 16 C0 10.72 0 5.44 0 0 Z " fill="#484C4F" transform="translate(120,72)"/>
<path d="M0 0 C4.0743356 0.84881992 5.54405875 2.30225596 8 5.625 C8.625 8.625 8.625 8.625 8 11.625 C5.54405875 14.94774404 4.0743356 16.40118008 0 17.25 C-4.0743356 16.40118008 -5.54405875 14.94774404 -8 11.625 C-8.625 8.625 -8.625 8.625 -8 5.625 C-5.54405875 2.30225596 -4.0743356 0.84881992 0 0 Z " fill="#EEF1F5" transform="translate(120,177.375)"/>
</svg>
