<?xml version="1.0" encoding="UTF-8"?>
<svg version="1.1" xmlns="http://www.w3.org/2000/svg" width="512" height="512">
<path d="M0 0 C1.52268997 0.00031723 1.52268997 0.00031723 3.07614136 0.00064087 C19.29369842 0.03431275 34.84716324 0.95653123 50.75 4.375 C51.71631348 4.57818848 52.68262695 4.78137695 53.67822266 4.99072266 C63.34262652 7.06271104 72.82805641 9.48850911 82.15625 12.7734375 C85.94113952 13.65125826 88.58773896 12.90901183 92.0625 11.3125 C96.45753239 9.77934917 100.88191247 9.56070544 105.1875 11.4375 C109.70515734 13.09030146 114.40055374 11.78585393 119.05078125 10.97265625 C124.87983665 10.07665292 128.39791178 10.83980032 133.75 13.375 C134.41 14.035 135.07 14.695 135.75 15.375 C139.0177279 15.9695327 142.28727011 16.33136436 145.5859375 16.71484375 C148.75 17.375 148.75 17.375 150.76953125 18.9375 C153.58311318 20.97970542 155.63672264 20.6025492 159.0625 20.4375 C165.86721191 20.30033895 170.34265229 20.22932052 175.625 24.9375 C176.32625 25.741875 177.0275 26.54625 177.75 27.375 C179.41699188 29.04199188 181.58682564 28.57839087 183.875 28.6875 C189.90453742 29.219288 193.96223775 30.1670533 198.09765625 34.92578125 C201.58482517 40.44614697 200.73682049 45.74648475 199.9140625 52.0078125 C199.73576671 55.66712139 200.50088507 57.96832292 201.75 61.375 C201.56721177 67.04143512 200.31750463 70.82021613 197.4921875 75.7109375 C197.24726563 76.26007813 197.00234375 76.80921875 196.75 77.375 C197.08 78.035 197.41 78.695 197.75 79.375 C197.65460938 80.14328125 197.55921875 80.9115625 197.4609375 81.703125 C196.7640433 87.76448381 197.35120503 91.55971879 201.17504883 96.45996094 C203.17287714 98.84026623 205.19833827 101.19563298 207.23193359 103.54541016 C241.47892908 144.82025483 257.26199457 202.83105425 257.0625 255.4375 C257.05976578 256.93159393 257.05976578 256.93159393 257.05697632 258.45587158 C257.01223255 272.96830287 256.55469043 287.09809519 253.75 301.375 C253.58902832 302.27057617 253.42805664 303.16615234 253.26220703 304.08886719 C245.37297508 347.69563051 225.68350867 388.83356217 196.75 422.375 C196.11578125 423.12007813 195.4815625 423.86515625 194.828125 424.6328125 C183.01698485 438.13779833 170.26639772 450.80918743 155.75 461.375 C154.60005169 462.23149066 153.45031411 463.08826433 152.30078125 463.9453125 C144.10910544 469.98648664 135.601615 475.35795056 126.75 480.375 C126.05874023 480.77187012 125.36748047 481.16874023 124.65527344 481.57763672 C86.98335695 503.01576346 44.28859767 512.86028692 1.1875 512.6875 C0.21855804 512.68534485 -0.75038391 512.6831897 -1.74868774 512.68096924 C-66.90684465 512.44865241 -129.22411761 487.66764272 -176.25 442.375 C-176.90935547 441.74287598 -177.56871094 441.11075195 -178.24804688 440.45947266 C-187.73630305 431.31502521 -196.4762044 422.01765991 -204.25 411.375 C-205.10806152 410.22394983 -205.96613451 409.07290823 -206.82421875 407.921875 C-212.86236829 399.73069386 -218.22095521 391.21695895 -223.25 382.375 C-223.61448242 381.74319824 -223.97896484 381.11139648 -224.35449219 380.46044922 C-239.25250327 354.43166464 -248.89791257 325.01361377 -253.25 295.375 C-253.42660156 294.17254639 -253.60320312 292.97009277 -253.78515625 291.73120117 C-255.3891435 280.01474155 -255.64963344 268.37597836 -255.625 256.5625 C-255.62445618 255.57665924 -255.62391235 254.59081848 -255.62335205 253.57510376 C-255.48976026 200.70855807 -239.15220177 142.42812296 -204.04296875 101.5546875 C-197.49731443 94.18939546 -197.49731443 94.18939546 -195.625 84.6875 C-195.83110833 82.91640632 -196.03902016 81.14551997 -196.25 79.375 C-195.755 77.89 -195.755 77.89 -195.25 76.375 C-196.28197118 74.12282105 -196.28197118 74.12282105 -197.75 71.75 C-200.52549568 66.49035902 -200.57616175 63.06644416 -199.25 57.375 C-198.40973838 53.42577039 -198.34137272 50.4561174 -198.9375 46.5 C-199.5390184 41.17455712 -198.60453103 37.58517953 -195.25 33.375 C-190.93687143 29.94210175 -188.08477155 29.23143117 -182.625 28.9375 C-178.52273021 28.71271809 -177.56810099 28.63345705 -174.25 25.9375 C-173.26 24.6690625 -173.26 24.6690625 -172.25 23.375 C-169.34219769 21.43646513 -168.41648309 21.06853062 -165.125 20.75 C-164.33480469 20.67265625 -163.54460937 20.5953125 -162.73046875 20.515625 C-159.57023498 20.33646214 -156.45090079 20.4372393 -153.29296875 20.6328125 C-151.13057778 20.53644456 -151.13057778 20.53644456 -149.38671875 18.92578125 C-146.56836275 16.88028338 -144.3172305 16.79456121 -140.875 16.4375 C-135.55294693 15.737386 -132.62739006 14.53079283 -128.25 11.375 C-122.68333888 10.09740564 -118.89322745 10.55003732 -113.42578125 11.95703125 C-109.14201424 12.7799452 -105.306429 11.727143 -101.25 10.375 C-96.57923091 10.06361539 -94.12784685 9.952333 -89.875 12 C-83.24996815 14.51294312 -77.23022507 11.70501344 -70.75 9.5625 C-64.05584187 7.43976815 -57.26725158 6.07653184 -50.375 4.75 C-49.31216797 4.5439917 -48.24933594 4.3379834 -47.15429688 4.12573242 C-43.85796319 3.50704289 -40.55749438 2.93086936 -37.25 2.375 C-36.13496094 2.18373535 -35.01992187 1.9924707 -33.87109375 1.79541016 C-22.59623587 0.06355974 -11.38616886 -0.02188601 0 0 Z " fill="#232224" transform="translate(255.25,-0.375)"/>
<path d="M0 0 C33.2722109 32.26035476 52.20113598 82.05736594 59 127 C59.17732666 128.12462646 59.35465332 129.24925293 59.53735352 130.40795898 C61.18875708 141.96190444 61.35670897 153.40465547 61.3125 165.0625 C61.31067719 166.05856262 61.30885437 167.05462524 61.30697632 168.08087158 C61.26223255 182.59330287 60.80469043 196.72309519 58 211 C57.83902832 211.89557617 57.67805664 212.79115234 57.51220703 213.71386719 C47.80611524 267.3631008 20.62734375 314.09843097 -18 352 C-18.33 351.34 -18.66 350.68 -19 350 C-18.29077148 348.02319336 -18.29077148 348.02319336 -17.12109375 345.58984375 C-16.69715332 344.69072266 -16.27321289 343.79160156 -15.83642578 342.86523438 C-15.37478027 341.89908203 -14.91313477 340.93292969 -14.4375 339.9375 C-10.01687502 330.45128626 -6.15963102 320.9744213 -3 311 C-2.62230469 309.81277344 -2.24460937 308.62554687 -1.85546875 307.40234375 C-0.2126579 301.94476614 1.11622517 296.55657918 2.03613281 290.93847656 C3.19384414 283.88878193 5.10492423 278.08502289 8.515625 271.76171875 C17.60427104 254.85205361 19.52239488 231.99596871 15.10546875 213.51953125 C10.12048299 197.64860484 -0.74960585 183.29870918 -14.25 173.5625 C-23.20089964 165.22188897 -24.57374146 157.01102044 -25.30712891 145.35546875 C-26.57253755 126.492871 -34.71824152 110.19110749 -47 96 C-47.63679688 95.16855469 -48.27359375 94.33710938 -48.9296875 93.48046875 C-53.84438322 87.59210689 -60.54017914 83.07988686 -67 79 C-64.20330895 77.52839263 -61.443226 76.40889368 -58.4375 75.4375 C-57.67308594 75.18871094 -56.90867187 74.93992187 -56.12109375 74.68359375 C-55.42113281 74.45800781 -54.72117187 74.23242188 -54 74 C-52.515 73.505 -52.515 73.505 -51 73 C-50.32558869 71.3364521 -49.6599679 69.66933058 -49 68 C-46.57925095 64.99827117 -43.70977921 63.12856478 -40.5 61.0625 C-36.2047317 58.25541168 -32.83916109 55.65088835 -31.23828125 50.59375 C-29.63500631 47.23547063 -27.71812909 46.09003368 -24.625 44.0625 C-20.24288002 40.99960462 -17.27172763 38.8532363 -15 34 C-14.896875 32.88625 -14.79375 31.7725 -14.6875 30.625 C-13.93452284 26.65475679 -13.30600535 26.03907013 -10.5625 23.3125 C-6.53605291 19.11454097 -6.1605237 15.49747951 -5.53125 9.85546875 C-4.73561598 5.57893591 -2.80989327 3.25356062 0 0 Z " fill="#F1F1F1" transform="translate(451,90)"/>
<path d="M0 0 C4.27184219 4.12944745 6.10185933 6.74743031 6.6875 12.6875 C7.54322646 18.47582855 9.32177537 21.03168509 13.3984375 25.06640625 C15.68646452 27.82878034 15.92803252 30.44116454 16.50390625 33.90234375 C17.82311131 39.48039977 22.05838206 42.11584989 26.625 44.9375 C31.03666755 47.71924111 32.04245432 50.14869115 34 55 C37.44405964 58.76867215 41.30643019 61.74281023 45.8125 64.125 C49.18609863 66.10946978 50.42033775 67.46899026 52 71 C52 71.66 52 72.32 52 73 C55.55503162 74.49480306 59.08584888 75.63721296 62.8125 76.625 C63.78832031 76.88539063 64.76414062 77.14578125 65.76953125 77.4140625 C66.50558594 77.60742188 67.24164063 77.80078125 68 78 C65.51277803 80.57012937 63.01963571 82.83917974 60.125 84.9375 C43.4557991 97.05135248 30.52859465 116.48112011 27 137 C26.76734039 139.71767332 26.59752743 142.43540609 26.43212891 145.15795898 C25.45057545 160.81149987 20.53769944 169.3451492 8.79321289 179.76416016 C8.24012451 180.24933105 7.68703613 180.73450195 7.1171875 181.234375 C-5.29681605 192.13119449 -14.83994884 207.17925815 -16 224 C-17.00020702 242.1287523 -14.62178569 262.93096719 -4.39453125 278.43359375 C-2.36890978 282.16141814 -1.8940863 285.97210886 -1.1875 290.125 C2.39311308 309.40128178 9.18079459 327.72463734 17.90405273 345.25488281 C18.66021689 346.80991315 19.33780386 348.40268981 20 350 C19.67 350.66 19.34 351.32 19 352 C8.85871016 342.20705462 -0.67920823 332.39152115 -9 321 C-9.85806152 319.84894983 -10.71613451 318.69790823 -11.57421875 317.546875 C-17.61236829 309.35569386 -22.97095521 300.84195895 -28 292 C-28.36448242 291.36819824 -28.72896484 290.73639648 -29.10449219 290.08544922 C-44.00250327 264.05666464 -53.64791257 234.63861377 -58 205 C-58.17660156 203.79754639 -58.35320313 202.59509277 -58.53515625 201.35620117 C-60.1391435 189.63974155 -60.39963344 178.00097836 -60.375 166.1875 C-60.37445618 165.20165924 -60.37391235 164.21581848 -60.37335205 163.20010376 C-60.22052519 102.72162499 -38.5782982 46.37603932 0 0 Z " fill="#F1F1F1" transform="translate(60,90)"/>
<path d="M0 0 C8.57567131 1.27117252 16.25631477 4.12815738 24 8 C24.33 5.36 24.66 2.72 25 0 C31.82369237 2.52729347 38.15230106 6.51999251 43 12 C44.96822886 10.03177114 44.66248381 6.65191291 45 4 C49.47274405 6.0265072 52.78875779 8.34357145 56.375 11.6875 C57.24898438 12.49574219 58.12296875 13.30398437 59.0234375 14.13671875 C60.00183594 15.05904297 60.00183594 15.05904297 61 16 C62.20628008 13.66785852 63.1654738 11.50357861 64 9 C71.66925106 11.15697686 77.26091642 17.92804917 82 24 C82.33 21.69 82.66 19.38 83 17 C95.55480786 23.63483618 103.80902283 39.65818321 108.2734375 52.52734375 C110.93483757 61.58468914 111.24887031 71.41342308 107 80.02734375 C103.46230535 86.0903007 98.84042865 91.1063809 93 95 C88.80745529 94.73925599 86.82879479 93.29839863 83.87890625 90.41796875 C78.90637088 85.80860184 73.58677903 82.04621622 67.9375 78.3125 C66.89456787 77.62260986 65.85163574 76.93271973 64.77709961 76.22192383 C42.15511477 61.47952581 17.65176955 49.48483554 -8 41 C-7.07441284 41.48859497 -7.07441284 41.48859497 -6.13012695 41.98706055 C24.02067798 57.96105229 52.08945197 75.55025572 77 99 C77.92619141 99.7734375 77.92619141 99.7734375 78.87109375 100.5625 C80 102 80 102 80.06640625 103.9453125 C78.60673791 110.2592267 76.00169018 114.92559566 72 120 C71.51917969 120.61875 71.03835937 121.2375 70.54296875 121.875 C61.43158256 132.20892661 46.28002552 136.53467078 33 138 C25.99639947 138.38968844 19.0061027 138.24873737 12 138 C13.29299694 135.11562221 14.65941363 133.12780579 17 131 C15.70964844 130.80664062 14.41929687 130.61328125 13.08984375 130.4140625 C11.37235965 130.15127805 9.65491373 129.88824396 7.9375 129.625 C7.08994141 129.49867188 6.24238281 129.37234375 5.36914062 129.2421875 C0.43980654 128.48090038 -4.23770249 127.48619868 -9 126 C-7.36587557 124.29159719 -6.13093906 123.06546953 -4 122 C-4.58265625 121.86464844 -5.1653125 121.72929687 -5.765625 121.58984375 C-13.15947623 119.64837652 -19.79544359 116.49753677 -26 112 C-26.33 111.01 -26.66 110.02 -27 109 C-24.36 108.67 -21.72 108.34 -19 108 C-19 107.34 -19 106.68 -19 106 C-19.680625 105.90203125 -20.36125 105.8040625 -21.0625 105.703125 C-24.6307123 104.84903163 -27.74111103 103.38640792 -31 101.75 C-31.60328125 101.46253906 -32.2065625 101.17507812 -32.828125 100.87890625 C-37.05623282 98.77404388 -39.86796085 96.44049755 -43 93 C-40.03 92.01 -37.06 91.02 -34 90 C-35.06927734 89.34644531 -35.06927734 89.34644531 -36.16015625 88.6796875 C-41.84461936 85.14506845 -47.15254969 81.63200808 -52 77 C-52 76.34 -52 75.68 -52 75 C-49.36 74.67 -46.72 74.34 -44 74 C-44.556875 73.443125 -45.11375 72.88625 -45.6875 72.3125 C-46.8321875 71.1678125 -46.8321875 71.1678125 -48 70 C-48.804375 69.21625 -49.60875 68.4325 -50.4375 67.625 C-58 59.87804878 -58 59.87804878 -58 57 C-57.21753906 56.93941406 -56.43507813 56.87882812 -55.62890625 56.81640625 C-54.61699219 56.73261719 -53.60507813 56.64882812 -52.5625 56.5625 C-51.55316406 56.48128906 -50.54382813 56.40007812 -49.50390625 56.31640625 C-47.06359221 56.26788532 -47.06359221 56.26788532 -46 55 C-46.87011719 54.38125 -46.87011719 54.38125 -47.7578125 53.75 C-53.89002903 49.2166122 -59.52628146 44.42115561 -62 37 C-58.04 37 -54.08 37 -50 37 C-53.11351005 30.38780341 -56.03806847 24.39974902 -61 19 C-61 18.67 -61 18.34 -61 18 C-48.625 17.505 -48.625 17.505 -36 17 C-37.32 15.35 -38.64 13.7 -40 12 C-40 11.34 -40 10.68 -40 10 C-30.23958934 9.67998654 -20.67967405 10.88693687 -11 12 C-13.475 9.03 -13.475 9.03 -16 6 C-8.17509977 5.37400798 -1.39062767 7.67485871 6 10 C4.27256146 6.38060496 2.52349243 3.12432397 0 0 Z " fill="#80C555" transform="translate(133,26)"/>
<path d="M0 0 C0.495 3.96 0.495 3.96 1 8 C1.94359375 7.49339844 1.94359375 7.49339844 2.90625 6.9765625 C9.58560128 3.49605716 15.34522971 1 23 1 C21.33333333 4.33333333 19.66666667 7.66666667 18 11 C19.4540625 10.319375 19.4540625 10.319375 20.9375 9.625 C27.48427143 6.83435602 33.90982372 5.69829037 41 6 C39.35 7.98 37.7 9.96 36 12 C37.75032844 11.85816304 39.50025534 11.71136571 41.25 11.5625 C42.22453125 11.48128906 43.1990625 11.40007813 44.203125 11.31640625 C46.87582648 11.08886389 46.87582648 11.08886389 48.90625 10.46875 C52.02651197 9.77018389 55.05963125 9.90795955 58.25 9.9375 C60.14492188 9.95103516 60.14492188 9.95103516 62.078125 9.96484375 C63.04234375 9.97644531 64.0065625 9.98804688 65 10 C63.92598892 12.91517292 63.22189824 14.77810176 61 17 C69.25 17.33 77.5 17.66 86 18 C84.68 19.98 83.36 21.96 82 24 C80.92413371 25.72088214 79.8606356 27.44958879 78.8125 29.1875 C78.30332031 30.02667969 77.79414063 30.86585937 77.26953125 31.73046875 C75.87975759 34.04880095 75.87975759 34.04880095 75 37 C78.96 37 82.92 37 87 37 C83.69379639 44.77930262 78.27621145 50.74075427 71 55 C72.73956658 56.73956658 75.1936622 56.37190386 77.5625 56.5625 C78.57441406 56.64628906 79.58632813 56.73007813 80.62890625 56.81640625 C81.41136719 56.87699219 82.19382812 56.93757813 83 57 C80.32021022 64.36942188 75.65804454 69.03687825 69 73 C72.96 73.99 72.96 73.99 77 75 C75.45167991 79.16051656 72.69618625 81.03783061 69.1875 83.625 C67.63095703 84.78902344 67.63095703 84.78902344 66.04296875 85.9765625 C63.37757268 87.74893113 61.01178388 88.96452532 58 90 C58.9075 90.28875 59.815 90.5775 60.75 90.875 C63.33098291 91.76841716 65.58842326 92.75227117 68 94 C52.36887608 106 52.36887608 106 44 106 C44 106.66 44 107.32 44 108 C44.94875 108.12375 45.8975 108.2475 46.875 108.375 C50 109 50 109 52 111 C44.35892929 116.45134503 37.08664001 119.67416687 28 122 C29.98 122.99 31.96 123.98 34 125 C33.67 125.66 33.34 126.32 33 127 C30.59155273 127.59423828 30.59155273 127.59423828 27.43359375 128.0703125 C26.30888672 128.24433594 25.18417969 128.41835937 24.02539062 128.59765625 C22.84138672 128.77167969 21.65738281 128.94570312 20.4375 129.125 C19.24962891 129.30675781 18.06175781 129.48851562 16.83789062 129.67578125 C13.89304481 130.12519547 10.94718115 130.5662103 8 131 C8.825 131.78375 9.65 132.5675 10.5 133.375 C13 136 13 136 13 138 C-8.27540878 138.733343 -28.51490253 138.03382429 -45 122.6875 C-50.2435463 117.03912108 -54.79638031 109.9004441 -55 102 C-53.078125 99.32421875 -53.078125 99.32421875 -50.25 96.6875 C-49.74412354 96.2116748 -49.23824707 95.73584961 -48.71704102 95.24560547 C-47.16573926 93.80485293 -45.58985238 92.39799976 -44 91 C-43.15824219 90.25621094 -42.31648438 89.51242188 -41.44921875 88.74609375 C-20.62218667 71.15810243 2.84932823 57.38893014 26.66601562 44.32177734 C28.48862396 43.28960145 30.25719956 42.16186696 32 41 C-1.50606015 53.84219411 -38.11292374 69.11292374 -64 95 C-70.7570838 94.51019491 -75.00839875 89.20690949 -79.3125 84.4375 C-84.60457171 76.79339641 -85.85150634 69.13209703 -85 60 C-81.98489769 43.94506033 -73.34072776 30.48160636 -62 19 C-59.671875 17.640625 -59.671875 17.640625 -58 17 C-57.67 19.31 -57.34 21.62 -57 24 C-56.28714844 23.18015625 -55.57429688 22.3603125 -54.83984375 21.515625 C-53.87289784 20.42663738 -52.90542134 19.33812072 -51.9375 18.25 C-51.47150391 17.71117188 -51.00550781 17.17234375 -50.52539062 16.6171875 C-47.05022086 12.74012736 -43.63223637 10.38262345 -39 8 C-38.34 10.64 -37.68 13.28 -37 16 C-36.030625 15.13375 -35.06125 14.2675 -34.0625 13.375 C-23.14732143 4 -23.14732143 4 -20 4 C-19.505 7.465 -19.505 7.465 -19 11 C-16.1525672 11 -15.36829527 9.67251188 -13.3125 7.75 C-4.68217546 0 -4.68217546 0 0 0 Z " fill="#80C555" transform="translate(354,26)"/>
<path d="M0 0 C12.15517855 8.64122693 20.50261549 19.63872405 23.1484375 34.52734375 C25.06880202 53.51668132 20.22645172 71.67739042 8.23925781 86.72583008 C-3.38073163 100.60795734 -19.55805679 111.39371986 -37.8515625 113.52734375 C-54.30439724 114.61760308 -68.27080357 112.46182576 -81.26171875 101.4921875 C-91.47320244 91.82622547 -97.81376305 79.76459767 -98.22265625 65.52148438 C-98.2628222 44.37411136 -91.1131759 28.03656504 -76.5390625 12.77734375 C-71.42293063 7.81001904 -66.0597711 4.00394057 -59.8515625 0.52734375 C-59.19929688 0.140625 -58.54703125 -0.24609375 -57.875 -0.64453125 C-40.14783822 -10.45104628 -17.42038557 -10.65298672 0 0 Z " fill="#CA1947" transform="translate(221.8515625,243.47265625)"/>
<path d="M0 0 C14.8278772 11.29743024 26.60941062 27.37418158 29.6015625 46.125 C29.69890074 47.45624351 29.75564335 48.79062105 29.7890625 50.125 C29.82773437 51.20652344 29.86640625 52.28804688 29.90625 53.40234375 C30.03800037 60.26068257 29.91443556 66.57930319 27.7890625 73.125 C27.50546875 74.04667969 27.221875 74.96835937 26.9296875 75.91796875 C22.77692305 87.54871845 13.85962718 97.52459669 2.7890625 103.125 C-12.8977436 109.90433299 -30.27178771 110.15765602 -46.2109375 103.9375 C-66.74664096 94.82229743 -80.31510324 79.65280164 -88.47265625 58.91796875 C-93.04167096 45.14679809 -93.26198216 29.47289264 -87.2109375 16.125 C-79.6234549 1.7388325 -68.62404931 -6.82364403 -53.2109375 -11.875 C-34.95152082 -16.51670357 -15.2088349 -10.16844293 0 0 Z " fill="#CA1947" transform="translate(358.2109375,248.875)"/>
<path d="M0 0 C10.93731476 8.08483607 17.63290868 18.93949915 21.53125 31.87109375 C21.72332031 32.49242187 21.91539062 33.11375 22.11328125 33.75390625 C24.99680818 48.36018283 20.56696239 62.66871567 12.53125 74.87109375 C2.74293145 88.03469455 -12.20675907 96.46092352 -28.22460938 99.54589844 C-47.61502085 102.35573613 -66.23863704 98.87232593 -82.51171875 87.80078125 C-94.45805598 78.60622101 -102.86744798 65.78647297 -105.46875 50.87109375 C-106.87229674 35.36443879 -103.00093819 22.47065798 -93.43359375 10.27734375 C-69.31081744 -17.97225673 -29.93780683 -20.00155197 0 0 Z " fill="#CA1947" transform="translate(297.46875,361.12890625)"/>
<path d="M0 0 C7.77830231 5.57472406 11.66581132 14.26259894 13.84765625 23.32421875 C16.01290779 42.3819746 10.38485135 58.98836618 -1.46484375 74.01171875 C-11.84504384 86.19717102 -24.77088074 95.34349617 -40.52734375 99.13671875 C-65.47394952 100.42706043 -65.47394952 100.42706043 -75.15234375 92.32421875 C-81.54861325 85.59606734 -82.77122837 80.93433975 -82.546875 71.75 C-81.50185864 54.75279046 -68.45535574 38.09641237 -57.15234375 26.32421875 C-56.04306816 24.99513279 -54.93868784 23.66194199 -53.83984375 22.32421875 C-42.09111003 8.89321831 -18.62923408 -10.55533143 0 0 Z " fill="#C91947" transform="translate(408.15234375,381.67578125)"/>
<path d="M0 0 C7.87151461 3.61999454 14.45641375 8.36754601 21 14 C21.8353125 14.70125 22.670625 15.4025 23.53125 16.125 C29.79047766 21.53420909 34.96606672 27.44949154 40 34 C40.67933594 34.85207031 41.35867187 35.70414062 42.05859375 36.58203125 C50.43246795 47.46970004 58.34867839 60.9969017 58.375 75 C58.39949219 75.68578125 58.42398438 76.3715625 58.44921875 77.078125 C58.47867532 82.22320633 57.18914992 85.03102145 54 89 C45.69030985 97.30969015 35.04794966 99.29517782 23.70458984 99.31689453 C6.76142536 99.02631729 -7.30357853 89.24623047 -19.1875 77.9140625 C-31.55302222 64.9206036 -38.8194878 47.7763949 -38.52172852 29.85913086 C-38.02939475 18.91056578 -34.85052329 9.85052329 -27 2 C-18.58117276 -5.31922532 -9.82319295 -3.90862783 0 0 Z " fill="#CA1947" transform="translate(128,382)"/>
<path d="M0 0 C6.18948095 5.73996557 11.02631416 12.32972801 11.625 20.9375 C11.33593221 26.82725619 8.97507354 30.7477799 5 35 C1.85248646 37.68782514 -1.44569912 39.88648875 -5 42 C-5.77214844 42.46277344 -6.54429687 42.92554688 -7.33984375 43.40234375 C-25.55057403 53.37127929 -48.3858357 54.6397768 -68.15234375 49.19921875 C-80.57820562 45.47237587 -90.85518989 39.1412658 -99.3125 29.3125 C-101.6573766 24.70959408 -101.85076977 21.06730414 -101 16 C-96.90400677 3.83888735 -87.88078097 -2.57247439 -76.85058594 -8.14257812 C-52.82902805 -19.27235534 -20.92872289 -16.14023109 0 0 Z " fill="#C91947" transform="translate(301,179)"/>
<path d="M0 0 C1.52268997 0.00031723 1.52268997 0.00031723 3.07614136 0.00064087 C19.29747234 0.03432058 34.84180327 0.96942493 50.75 4.375 C51.70567871 4.57287109 52.66135742 4.77074219 53.64599609 4.97460938 C64.94314002 7.35376594 75.89126435 10.45517991 86.75 14.375 C83.94624314 15.15346974 81.33655265 15.5072747 78.4375 15.6875 C74.42482052 16.07898092 72.08477426 17.32139736 68.6875 19.5390625 C66.12661301 20.64396132 64.14856343 20.45888251 61.375 20.3125 C55.32379136 20.05411506 51.64700278 22.00831059 46.75 25.375 C43.86355791 27.29929472 42.81618852 27.64126578 39.5625 28.125 C27.60072817 30.67581403 19.39865786 42.46982769 13.0625 52.1875 C8.36079947 59.59285601 3.57010576 67.72949765 1.75 76.375 C1.09 76.375 0.43 76.375 -0.25 76.375 C-0.45753906 75.73175781 -0.66507812 75.08851562 -0.87890625 74.42578125 C-5.00121403 62.33482832 -10.879719 52.00549059 -19.25 42.375 C-19.98476562 41.48425781 -20.71953125 40.59351563 -21.4765625 39.67578125 C-27.73008168 32.31553961 -32.91558255 29.03193858 -42.2265625 27.0078125 C-45.96217993 25.8395306 -49.03039859 23.54407419 -52.25 21.375 C-54.83527296 20.08236352 -56.5585142 20.41557245 -59.4375 20.5625 C-64.18307546 20.62413085 -66.58745666 19.96755402 -70.42578125 17.328125 C-73.46558607 15.7398758 -76.63757418 15.73437097 -80.015625 15.55078125 C-82.25 15.375 -82.25 15.375 -85.25 14.375 C-69.49274079 8.8520591 -53.73339493 5.02309485 -37.25 2.375 C-36.1480127 2.18808594 -35.04602539 2.00117187 -33.91064453 1.80859375 C-22.61979521 0.07177858 -11.40284388 -0.02191806 0 0 Z " fill="#F1F1F1" transform="translate(255.25,-0.375)"/>
<path d="M0 0 C4.18087399 1.04740973 6.90621486 2.80532357 10.1640625 5.49609375 C10.72754395 5.94863525 11.29102539 6.40117676 11.87158203 6.86743164 C24.00099526 16.74453771 34.22183302 28.98366543 36.7265625 44.93359375 C38.01319674 65.24756894 33.48805926 85.71585829 20.7265625 101.93359375 C16.25212252 106.82410208 16.25212252 106.82410208 12.7265625 107.55859375 C8.66946628 106.71336537 7.42647378 105.05367613 4.7265625 101.93359375 C3.31673346 99.51822998 2.22753515 97.01750964 1.1640625 94.43359375 C0.8659668 93.72581787 0.56787109 93.01804199 0.26074219 92.28881836 C-8.60610198 70.8332746 -10.27347902 49.37886172 -10.4609375 26.43359375 C-10.47406982 25.43062256 -10.48720215 24.42765137 -10.50073242 23.39428711 C-10.50861847 16.11546339 -10.40690702 8.47160525 -6.0859375 2.30859375 C-3.2734375 -0.06640625 -3.2734375 -0.06640625 0 0 Z " fill="#C91947" transform="translate(417.2734375,269.06640625)"/>
<path d="M0 0 C5.4850876 4.97484689 6.7107259 10.45408836 7.17211914 17.70483398 C7.23270311 20.63948112 7.22615255 23.56499839 7.1875 26.5 C7.1781543 27.55807861 7.16880859 28.61615723 7.15917969 29.70629883 C7.12252562 32.80474254 7.06571566 35.90205005 7 39 C6.98598145 39.80099121 6.97196289 40.60198242 6.95751953 41.42724609 C6.49284233 62.79760683 2.51572961 88.67643325 -11 106 C-13.83472302 107.41736151 -15.86122178 107.3021074 -19 107 C-31.66309523 97.57251182 -37.05561294 78.96367924 -39.45703125 64.12109375 C-41.79057403 47.73229493 -38.72944337 33.49801734 -29 20 C-23.12805461 13.075802 -10.08829408 -1.72449471 0 0 Z " fill="#C91947" transform="translate(98,269)"/>
<path d="M0 0 C1.07958984 -0.020625 2.15917969 -0.04125 3.27148438 -0.0625 C4.30982422 -0.06765625 5.34816406 -0.0728125 6.41796875 -0.078125 C7.35793701 -0.0874707 8.29790527 -0.09681641 9.26635742 -0.10644531 C12.23301822 0.30887013 13.60037252 1.28178791 15.8125 3.25 C15.45768789 9.12657554 13.70480327 12.33785541 9.8125 16.5625 C9.3177417 17.12155029 8.8229834 17.68060059 8.31323242 18.2565918 C7.30425583 19.39292596 6.28889971 20.5236292 5.26708984 21.6484375 C3.9517302 23.0967019 2.65626855 24.56297734 1.36328125 26.03125 C-6.54972245 34.97998717 -14.85831436 42.78930182 -24.1875 50.25 C-24.909375 50.86230469 -25.63125 51.47460938 -26.375 52.10546875 C-32.20379788 56.98708697 -38.43805303 61.21400848 -44.75 65.4375 C-45.63671387 66.03199951 -46.52342773 66.62649902 -47.43701172 67.23901367 C-50.00315858 68.93857965 -52.58597079 70.60515894 -55.1875 72.25 C-56.41509033 73.02851318 -56.41509033 73.02851318 -57.66748047 73.82275391 C-58.44623535 74.28987793 -59.22499023 74.75700195 -60.02734375 75.23828125 C-60.71046631 75.65247314 -61.39358887 76.06666504 -62.09741211 76.4934082 C-64.83824046 77.48556181 -66.43773217 77.12287458 -69.1875 76.25 C-71.92192528 73.51557472 -71.51889299 71.95369544 -71.5625 68.125 C-71.24788914 50.02562255 -64.33967658 33.67656214 -52.1875 20.25 C-51.49914062 19.46882813 -50.81078125 18.68765625 -50.1015625 17.8828125 C-41.47661993 8.6351304 -31.60439785 3.43429867 -19.1875 1.25 C-17.65609375 0.97542969 -17.65609375 0.97542969 -16.09375 0.6953125 C-10.72315029 0.08306413 -5.4013645 0.0260778 0 0 Z " fill="#C91947" transform="translate(171.1875,174.75)"/>
<path d="M0 0 C1.59134766 0.0009668 1.59134766 0.0009668 3.21484375 0.00195312 C4.31957031 0.01806641 5.42429687 0.03417969 6.5625 0.05078125 C7.63628906 0.04755859 8.71007812 0.04433594 9.81640625 0.04101562 C25.85803958 0.14718769 40.27703653 3.50221934 52.5625 14.36328125 C53.63564453 15.29720703 53.63564453 15.29720703 54.73046875 16.25 C67.9860764 28.59300127 76.45255692 45.64372836 77.81640625 63.73046875 C78.12136839 72.56453328 78.12136839 72.56453328 75.8515625 75.80859375 C73.5625 77.36328125 73.5625 77.36328125 71.234375 77.3515625 C67.85885422 76.10301461 64.86360258 74.43208552 61.8125 72.55078125 C60.84002319 71.95680542 60.84002319 71.95680542 59.84790039 71.35083008 C46.52047333 63.09052735 34.2429656 53.80563974 22.5625 43.36328125 C21.63566406 42.54730469 20.70882813 41.73132813 19.75390625 40.890625 C10.84159393 32.98213477 2.93396118 24.73877085 -4.4375 15.36328125 C-4.99179687 14.67621094 -5.54609375 13.98914063 -6.1171875 13.28125 C-8.0605513 10.76146473 -9.3578328 8.75276536 -10 5.61328125 C-9.4375 3.36328125 -9.4375 3.36328125 -7.7421875 1.74536133 C-4.94125727 0.06569331 -3.25011894 -0.01019796 0 0 Z " fill="#C91947" transform="translate(334.4375,174.63671875)"/>
<path d="M0 0 C0.72072693 0.00215515 1.44145386 0.0043103 2.184021 0.00653076 C20.21053719 0.09281067 43.5323736 0.49663114 57.2800293 14.21386719 C59.08418524 16.68455772 59.50741154 18.54563207 60.01171875 21.546875 C60.16858154 22.44116211 60.32544434 23.33544922 60.48706055 24.25683594 C60.64815308 25.27438965 60.64815308 25.27438965 60.8125 26.3125 C57.66880417 26.94855332 54.52219746 27.56902635 51.375 28.1875 C50.51583984 28.36152344 49.65667969 28.53554688 48.77148438 28.71484375 C32.91101415 31.80677657 17.37531472 32.68504125 1.25 32.625 C-0.19792938 32.62326279 -0.19792938 32.62326279 -1.67510986 32.62149048 C-16.36481475 32.5866721 -30.71435857 32.04801553 -45.1875 29.3125 C-45.95223633 29.16844727 -46.71697266 29.02439453 -47.50488281 28.87597656 C-51.42407063 28.11625708 -55.31210469 27.27452595 -59.1875 26.3125 C-58.7301057 20.62937582 -57.95274435 16.38667426 -53.625 12.4375 C-49.4491751 9.23227224 -45.127204 7.08318117 -40.1875 5.3125 C-39.42824219 5.03664063 -38.66898438 4.76078125 -37.88671875 4.4765625 C-25.62264804 0.42199248 -12.809274 -0.06919931 0 0 Z " fill="#C81A48" transform="translate(255.1875,479.6875)"/>
<path d="M0 0 C2.125 0.9375 2.125 0.9375 4 2 C-1.14285714 6.42857143 -1.14285714 6.42857143 -5 7 C-2.25 1.125 -2.25 1.125 0 0 Z " fill="#3C383A" transform="translate(387,472)"/>
<path d="M0 0 C4.60853797 0.72008406 8.67237409 2.31295939 13 4 C12.67 4.99 12.34 5.98 12 7 C8.04 5.02 4.08 3.04 0 1 C0 0.67 0 0.34 0 0 Z " fill="#303B2B" transform="translate(123,66)"/>
</svg>
