<?xml version="1.0" encoding="UTF-8"?>
<svg version="1.1" xmlns="http://www.w3.org/2000/svg" width="512" height="512">
<path d="M0 0 C7.30355057 0.14149976 14.59845528 0.155919 21.90299084 0.09053958 C22.95950474 0.08119237 24.01601864 0.07184515 25.10454812 0.06221469 C27.25373734 0.04270292 29.40292418 0.02292572 31.55210855 0.00288662 C51.50748382 -0.16931749 71.4455198 0.02600386 91.39804246 0.35670897 C108.36160248 0.62921329 125.29969164 0.5818212 142.26279309 0.30066455 C162.16554796 -0.02908204 182.05327826 -0.15258355 201.95838597 0.03301264 C204.09775561 0.05243525 206.2371275 0.07161206 208.37650158 0.09053958 C209.4279269 0.09995039 210.47935221 0.1093612 211.5626389 0.11905718 C218.82169788 0.17079538 226.07075716 0.08381211 233.32828381 -0.06071316 C273.3039694 -0.78666839 307.20823808 0.23222636 337.59575512 28.86396755 C340.33756808 31.53332512 343.02756303 34.2492339 345.70371106 36.9842583 C346.34742814 37.63265697 346.99114523 38.28105563 347.6543689 38.94910274 C369.61103373 61.19843164 379.42454789 84.79823361 379.91147473 116.20862354 C379.84964663 119.01394324 379.67214846 121.80208856 379.47958996 124.60095752 C379.37047855 126.97709103 379.27770955 129.35351413 379.1864505 131.73039497 C379.12415954 133.34187716 379.05670911 134.95316889 378.98388817 136.56420959 C378.74919425 142.17981106 378.83865841 147.72942916 379.09238293 153.34265674 C379.15495526 154.96141798 379.21731887 156.5801873 379.27947094 158.19896472 C379.368572 160.46937959 379.46779045 162.73413727 379.62374546 165.00096858 C381.45258544 192.05052004 374.4553507 218.2283119 356.804899 238.82350302 C353.23576594 242.8545855 349.49622234 246.70225108 345.70371106 250.52234424 C345.05115684 251.18925492 344.39860262 251.85616561 343.72627404 252.54328571 C315.29965992 281.40555887 287.81243462 287.39778731 248.28511436 287.72522029 C242.28200795 287.73298366 236.28122542 287.62612013 230.27949242 287.50660254 C222.97594185 287.36510278 215.68103714 287.35068354 208.37650158 287.41606296 C207.31998768 287.42541017 206.26347378 287.43475739 205.1749443 287.44438785 C203.02575508 287.46389962 200.87656825 287.48367683 198.72738387 287.50371592 C178.7720086 287.67592003 158.83397262 287.48059869 138.88144996 287.14989357 C121.91788994 286.87738925 104.97980078 286.92478134 88.01669934 287.20593799 C68.11394446 287.53568458 48.22621416 287.65918609 28.32110646 287.4735899 C26.18173681 287.45416729 24.04236492 287.43499048 21.90299084 287.41606296 C20.85156553 287.40665215 19.80014021 287.39724134 18.71685352 287.38754536 C11.45779455 287.33580716 4.20873526 287.42279043 -3.04879139 287.56731571 C-43.02447697 288.29327093 -76.92874565 287.27437618 -107.3162627 258.642635 C-110.05807565 255.97327742 -112.74807061 253.25736864 -115.42421863 250.52234424 C-116.06793572 249.87394558 -116.71165281 249.22554691 -117.37487648 248.5574998 C-139.3315413 226.3081709 -149.14505547 202.70836893 -149.6319823 171.297979 C-149.57015421 168.4926593 -149.39265604 165.70451398 -149.20009754 162.90564502 C-149.09098613 160.52951151 -148.99821712 158.15308841 -148.90695808 155.77620757 C-148.84466712 154.16472538 -148.77721669 152.55343365 -148.70439575 150.94239295 C-148.46970182 145.32679148 -148.55916599 139.77717338 -148.81289051 134.1639458 C-148.87546284 132.54518456 -148.93782644 130.92641525 -148.99997852 129.30763782 C-149.08907957 127.03722295 -149.18829803 124.77246527 -149.34425304 122.50563396 C-151.17309302 95.4560825 -144.17585827 69.27829064 -126.52540658 48.68309952 C-122.95627352 44.65201704 -119.21672991 40.80435146 -115.42421863 36.9842583 C-114.77166442 36.31734762 -114.1191102 35.65043693 -113.44678161 34.96331684 C-80.19618574 1.20313079 -45.43848236 -0.90485498 0 0 Z M-92.57998035 59.82849658 C-93.05430264 60.31449842 -93.52862492 60.80050026 -94.01732061 61.30122942 C-110.72224094 78.57766737 -116.76938948 97.8440344 -117.47499988 121.59924854 C-117.40065035 123.85120801 -117.29297632 126.10235548 -117.14931629 128.35095752 C-117.04711786 130.91343077 -116.94993615 133.47610817 -116.8573241 136.0389458 C-116.80543934 137.31127063 -116.75355457 138.58359546 -116.70009754 139.89447559 C-116.6098886 143.76898641 -116.69943096 147.59578111 -116.8573241 151.46765674 C-116.90388141 152.75602939 -116.95043873 154.04440204 -116.99840686 155.37181628 C-117.0930131 157.74392654 -117.21063061 160.11535187 -117.36199329 162.4845177 C-118.14694067 186.25964749 -111.70200817 207.27836964 -95.42357776 224.75100435 C-94.47800513 225.72892741 -93.53009542 226.70459557 -92.57998035 227.67810596 C-92.09750072 228.17900377 -91.61502108 228.67990158 -91.11792085 229.19597811 C-68.82651406 252.09893471 -44.99318447 255.05398563 -14.1280963 255.59191691 C-6.71122189 255.67935319 0.70099555 255.59626855 8.11705638 255.47710361 C14.91241958 255.37082853 21.70249105 255.35936304 28.49844982 255.40882648 C29.47806608 255.4158752 30.45768234 255.42292392 31.46698394 255.43018623 C33.45917122 255.44489865 35.45135702 255.45981258 37.44354131 255.47492544 C55.97940106 255.60505842 74.50467625 255.45700703 93.03879621 255.20810858 C108.82707667 255.00262225 124.59979292 255.03835133 140.38779309 255.25037158 C158.87133119 255.49848681 177.34567484 255.59243581 195.83064701 255.45220745 C197.81411083 255.43755946 199.79757604 255.42309829 201.7810426 255.40882648 C203.24359885 255.39818147 203.24359885 255.39818147 204.7357017 255.38732141 C211.49667917 255.34815822 218.25158507 255.41426213 225.01163342 255.52288593 C274.68149285 256.88111028 274.68149285 256.88111028 316.81717541 233.78174747 C318.86920365 231.782615 320.87209697 229.74134785 322.85947277 227.67810596 C323.33379506 227.19210412 323.80811735 226.70610228 324.29681303 226.20537312 C341.00173336 208.92893517 347.0488819 189.66256814 347.75449231 165.907354 C347.68014278 163.65539453 347.57246874 161.40424706 347.42880871 159.15564502 C347.32661028 156.59317177 347.22942857 154.03049437 347.13681652 151.46765674 C347.08493176 150.19533191 347.03304699 148.92300708 346.97958996 147.61212695 C346.88938102 143.73761613 346.97892339 139.91082143 347.13681652 136.0389458 C347.18337384 134.75057315 347.22993115 133.4622005 347.27789929 132.13478626 C347.37250552 129.762676 347.49012303 127.39125067 347.64148571 125.02208484 C348.42643309 101.24695505 341.9815006 80.2282329 325.70307019 62.75559819 C324.75749756 61.77767513 323.80958785 60.80200697 322.85947277 59.82849658 C322.13575332 59.07714987 322.13575332 59.07714987 321.39741328 58.31062443 C299.10600648 35.40766783 275.27267689 32.45261691 244.40758873 31.91468563 C236.99071431 31.82724935 229.57849688 31.91033399 222.16243605 32.02949893 C215.36707284 32.13577401 208.57700137 32.1472395 201.7810426 32.09777606 C200.80142634 32.09072734 199.82181008 32.08367862 198.81250849 32.07641631 C196.8203212 32.06170389 194.8281354 32.04678996 192.83595111 32.0316771 C174.30009136 31.90154412 155.77481617 32.04959551 137.24069621 32.29849396 C121.45241575 32.50398029 105.67969951 32.46825121 89.89169934 32.25623096 C71.40816123 32.00811573 52.93381758 31.91416673 34.44884541 32.05439509 C32.46538159 32.06904308 30.48191638 32.08350425 28.49844982 32.09777606 C27.03589357 32.10842107 27.03589357 32.10842107 25.54379072 32.11928114 C18.78281325 32.15844432 12.02790735 32.09234042 5.267859 31.98371661 C-32.63028676 31.42845766 -64.91321073 31.10557575 -92.57998035 59.82849658 Z " fill="#000000" transform="translate(140.86025378853083,232.7466987296939)"/>
<path d="M0 0 C1.70736328 0.56074219 1.70736328 0.56074219 3.44921875 1.1328125 C30.41302253 10.76958024 51.71312295 30.19774053 64.29956055 55.82202148 C76.27996289 81.55964622 77.40513586 111.26445284 67.79785156 137.90283203 C63.4134203 149.42739278 57.99565636 159.53357073 50 169 C49.22914063 169.93328125 48.45828125 170.8665625 47.6640625 171.828125 C33.87976065 187.79828702 16.08743609 198.06901133 -4 204 C-5.155 204.34160156 -6.31 204.68320313 -7.5 205.03515625 C-34.25435047 211.57173051 -62.65101636 206.42440069 -86.40234375 193.08984375 C-89.38604774 191.18043003 -92.19591974 189.16414493 -95 187 C-95.78383057 186.39913574 -95.78383057 186.39913574 -96.58349609 185.78613281 C-119.25959758 168.18576706 -133.72463998 143.12601354 -137.75 114.5625 C-137.86484152 113.04372092 -137.94283412 111.52204157 -138 110 C-138.0515625 108.79472656 -138.103125 107.58945313 -138.15625 106.34765625 C-139.04109959 75.6182502 -128.50536988 49.57405961 -108.078125 26.86328125 C-81.33120769 -1.2651917 -36.84539285 -12.43074996 0 0 Z M-85 48 C-100.42799298 63.7494095 -107.40955126 83.08639147 -107.21484375 105.0234375 C-106.63825651 115.69554316 -103.64528335 125.42790098 -99 135 C-98.54238281 135.96421875 -98.08476562 136.9284375 -97.61328125 137.921875 C-88.11282251 156.01342866 -71.159793 167.88569913 -52 174 C-51.22914063 174.24621094 -50.45828125 174.49242187 -49.6640625 174.74609375 C-29.94904281 179.76131806 -9.15720548 175.16085444 8 165 C25.83207323 153.27783093 37.40385562 135.71370475 42 115 C45.53043092 96.85750776 41.93732097 77.63726672 32.11328125 61.99609375 C30.16520263 59.24428918 28.12806172 56.61447583 26 54 C25.39542969 53.22011719 24.79085937 52.44023438 24.16796875 51.63671875 C11.844519 36.6150821 -7.23921096 28.24778256 -26.25 26.1875 C-48.27819237 24.9212087 -69.01194655 32.82086592 -85 48 Z " fill="#000000" transform="translate(288,4)"/>
<path d="M0 0 C64.89361702 0 64.89361702 0 79.8046875 13.65234375 C91.34718265 25.88260415 92.31883777 41.30788984 92.30078125 57.23828125 C92.30468147 58.69117858 92.3090188 60.1440748 92.31376648 61.5969696 C92.3211791 64.62677726 92.32097416 67.6564683 92.31567383 70.6862793 C92.30989104 74.52869037 92.32680545 78.37061753 92.3500185 82.2129488 C92.36490239 85.20994254 92.3656078 88.20682371 92.36250877 91.20384789 C92.36301484 92.61853174 92.3681146 94.03322313 92.37832069 95.44787025 C92.47779554 111.16208017 90.56824565 125.54042679 79.671875 137.5703125 C57.57271467 158.62705961 30.80948326 151 0 151 C0 101.17 0 51.34 0 0 Z M31 31 C31 60.37 31 89.74 31 120 C48.59427301 121.57110664 48.59427301 121.57110664 57 116 C62.65520817 110.03905644 61.58228247 100.89950877 61.53125 93.28125 C61.53394996 91.8545302 61.53783656 90.4278122 61.54284668 89.00109863 C61.54871818 86.02219998 61.54025579 83.04378363 61.52148438 80.06494141 C61.49869528 76.26536917 61.51183118 72.46692741 61.53577423 68.66739655 C61.5502966 65.72462599 61.54559706 62.78211913 61.53526306 59.83934021 C61.53261348 58.43924319 61.53580263 57.03912146 61.54518127 55.63905334 C61.89572835 44.53048942 61.89572835 44.53048942 57 35 C48.59427301 29.42889336 48.59427301 29.42889336 31 31 Z " fill="#000000" transform="translate(225,301)"/>
<path d="M0 0 C10.23 0 20.46 0 31 0 C31 19.8 31 39.6 31 60 C40.57 60 50.14 60 60 60 C60 40.2 60 20.4 60 0 C70.23 0 80.46 0 91 0 C91 49.83 91 99.66 91 151 C80.77 151 70.54 151 60 151 C60 131.2 60 111.4 60 91 C50.43 91 40.86 91 31 91 C31 110.8 31 130.6 31 151 C20.77 151 10.54 151 0 151 C0 101.17 0 51.34 0 0 Z " fill="#000000" transform="translate(109,301)"/>
<path d="M0 0 C10.23 0 20.46 0 31 0 C31 39.6 31 79.2 31 120 C50.8 120 70.6 120 91 120 C91 130.23 91 140.46 91 151 C60.97 151 30.94 151 0 151 C0 101.17 0 51.34 0 0 Z " fill="#000000" transform="translate(342,301)"/>
<path d="M0 0 C3.76672156 3.18402088 7.49002591 6.36161906 10.96484375 9.8671875 C11.61904297 10.52460937 12.27324219 11.18203125 12.94726562 11.859375 C13.60404297 12.52453125 14.26082031 13.1896875 14.9375 13.875 C15.62134766 14.56335938 16.30519531 15.25171875 17.00976562 15.9609375 C18.67551464 17.63833511 20.3388622 19.31803791 22 21 C20.38376737 25.05602714 17.49847324 27.76955528 14.44873047 30.77832031 C13.88273132 31.34461151 13.31673218 31.91090271 12.73358154 32.49435425 C10.8661528 34.36039238 8.99174538 36.21925096 7.1171875 38.078125 C5.81923589 39.37234554 4.52172584 40.66700905 3.22463989 41.96209717 C-0.18714836 45.36625646 -3.60490052 48.76436634 -7.02392578 52.16125488 C-10.5130592 55.62991407 -13.99652387 59.10425583 -17.48046875 62.578125 C-24.31477368 69.39099302 -31.15539203 76.1974842 -38 83 C-43.55439924 78.37508621 -48.68525669 73.44639036 -53.77734375 68.3203125 C-54.58869278 67.50754852 -55.40004181 66.69478455 -56.23597717 65.85739136 C-58.8055259 63.28228262 -61.37155968 60.7037038 -63.9375 58.125 C-65.68791929 56.36956054 -67.438568 54.61434983 -69.18945312 52.859375 C-73.46229302 48.57555918 -77.73225899 44.28889528 -82 40 C-80.3413812 36.47655356 -78.43342692 34.20098122 -75.6484375 31.453125 C-74.37226563 30.18662109 -74.37226563 30.18662109 -73.0703125 28.89453125 C-72.18085938 28.02183594 -71.29140625 27.14914063 -70.375 26.25 C-69.4778125 25.36183594 -68.580625 24.47367188 -67.65625 23.55859375 C-65.44192996 21.36783031 -63.22307565 19.18187237 -61 17 C-55.74825074 21.38442526 -50.86777527 26.00842093 -46.0625 30.875 C-45.37865234 31.56335938 -44.69480469 32.25171875 -43.99023438 32.9609375 C-42.32448407 34.63833641 -40.66159639 36.31848946 -39 38 C-33.85170256 33.69372744 -29.04247928 29.17688069 -24.31640625 24.4140625 C-23.26585304 23.36138687 -23.26585304 23.36138687 -22.19407654 22.28744507 C-19.98116973 20.06898864 -17.77178584 17.84706185 -15.5625 15.625 C-14.05296686 14.11044534 -12.54320343 12.59612015 -11.03320312 11.08203125 C-7.35280298 7.39066901 -3.67528043 3.69645931 0 0 Z " fill="#000000" transform="translate(286,66)"/>
</svg>
